<?xml version="1.0" standalone="no"?>
<!DOCTYPE svg PUBLIC "-//W3C//DTD SVG 1.1//EN" "http://www.w3.org/Graphics/SVG/1.1/DTD/svg11.dtd">
<svg xmlns="http://www.w3.org/2000/svg">
<metadata>Generated by Fontastic.me</metadata>
<defs>
<font id="astra" horiz-adv-x="512">
<font-face font-family="astra" units-per-em="512" ascent="480" descent="-32"/>
<missing-glyph horiz-adv-x="512" />

<glyph glyph-name="link-icon" unicode="&#97;" d="M461 461c-25 24-58 38-92 38-35 0-68-14-93-38l-96-96c-24-25-38-58-38-93 0-34 14-67 38-92 7-7 16-13 25-19l3-2 61 61-9 2c-9 2-17 7-24 14-11 10-16 22-16 36 0 15 5 27 16 37l96 97c10 10 22 15 37 15 14 0 26-5 37-15 20-21 20-54 0-74l-31-31 1-3c11-27 14-55 9-84l-3-16 79 78c24 25 38 58 38 93 0 34-14 67-38 92z m-153-110l-3 2-61-61 9-2c9-2 17-7 25-14 20-20 20-53 0-73l-97-97c-10-10-22-15-37-15-14 0-26 5-36 15-21 21-21 54 0 74l30 31-1 3c-11 27-14 55-9 84l3 16-80-78c-24-25-38-58-38-93 0-34 14-67 38-92 25-24 58-38 92-38 35 0 68 14 93 38l96 96c24 25 38 58 38 93 0 34-14 67-38 92-7 8-16 14-24 19z"/>
<glyph glyph-name="wallet" unicode="&#98;" d="M486 190c0-2-1-3-3-3l-123 0c-2 0-3 1-3 3l0 64c0 2 1 3 3 3l123 0c2 0 3-1 3-3z m-41-102c0-16-13-29-28-29l-380 0c-6 0-11 6-11 12l0 318c6-3 12-4 19-4l373 0c16 0 28-13 28-29l0-72-86 0c-15 0-28-14-28-29l0-64c0-15 12-28 28-28l86 0 0-75z m-401 361l325 0c6 0 11-6 11-12l0-27-336 0c-10 0-19 8-19 19 0 11 9 20 19 20z m439-166l-12 0 0 72c0 30-25 55-54 55l-11 0 0 27c0 21-17 37-37 37l-325 0c-24-1-44-20-44-44l0-359c0-21 16-37 37-37l381 0c29 0 54 24 54 54l0 74 12 0c16 0 29 12 29 28l0 64c-1 15-14 29-30 29z"/>
<glyph glyph-name="key" unicode="&#99;" d="M434 253l-22-23c-21-20-54-20-74 0l-92 93c0 0-1 0-1 1 0 18 0 46-7 70l26 27-10-10c-9-10-9-25 0-35 4-4 10-7 17-7 8 0 13 2 18 7l12 12c9 9 9 25 0 35-4 4-10 6-16 7 0 1-1 2-1 4 18 7 40 3 55-12l95-94c21-22 21-56 0-75z m-278 5l-24 0c-27 0-70 9-70 61 0 59 7 117 54 117l2 0c-4-4-7-10-7-17 0-13 11-24 23-24l18 0c13 0 23 12 23 24 0 7-3 12-7 17l2 0c47 0 53-59 53-117 1-55-47-61-67-61z m2-48l-27-28 23-22-23-23 23-22-23-23 27-26 0-15-21-20-20 20 0 188c5-1 9-1 15-1l24 0c1 0 1 0 2 0z m-24 212l18 0c2 0 3-1 3-3 0-1-2-3-3-3l-18 0c-2 0-3 1-3 3 0 2 1 3 3 3z m17 55c6 9 17 15 31 15 16 0 32-7 47-18 13-9 23-20 29-33-2-2-5-4-7-6l-20-19c-10 23-28 41-60 41l-26 0c-1 8 1 14 6 20z m136-69c1-1 1-5 0-6l-13-12c-1-1-4-1-5 0-1 1-1 4 0 5l13 13c1 1 2 1 3 1 0 0 1 0 2-1z m162-67l-96 94c-21 22-52 27-78 17-8 14-20 28-34 38-19 14-40 21-60 21-20 0-38-8-48-23-6-9-9-20-9-31l-9 0c-74 0-74-97-74-138 0-38 20-65 55-76 0-1 0-1 0-2l0-200 41-41 41 41 0 32-18 18 22 23-22 22 22 23-22 22 18 19 0 38c30 5 56 22 65 57l81-81c13-13 31-21 51-21 19 0 38 7 51 21l23 23c28 29 28 75 0 104z m-74-70c-13 0-22 11-22 22 0 12 11 21 22 21 12 0 21-10 21-21 0-12-9-22-21-22m0 64c-24 0-42-20-42-42 0-24 19-42 42-42 23 0 42 19 42 42 0 23-19 42-42 42"/>
<glyph glyph-name="car" unicode="&#100;" d="M43 154l14 0c5-27 29-46 57-46 27 0 51 19 56 46l171 0c5-27 29-46 56-46 28 0 52 19 57 46l15 0c24 0 43 19 43 43l0 15c0 54-44 98-98 98l-31 0-56 57c-26 25-60 39-96 39l-19 0c-18 0-36-4-52-10-8-3-14-5-19-7-9-5-18-11-26-18-14-12-23-26-30-41-3-8-6-15-8-22-42-6-77-44-77-89l0-23c0-24 19-42 43-42m72-24c-20 0-35 15-35 35 0 19 15 35 35 35 19 0 35-16 35-35-2-20-17-35-35-35m282 0c-19 0-35 15-35 35 0 19 16 35 35 35 20 0 35-16 35-35 0-20-15-35-35-35m-158 179l-25 0 0 73 18 0c30 0 58-11 79-33l40-40z m-133 12c6 12 14 23 25 32 6 6 14 12 22 16 2 1 7 3 15 6 7 3 14 4 22 6l0-71-88 0c1 3 3 6 4 11m379-136c-3-5-9-9-16-9l-15 0c-5 27-29 46-57 46-27 0-51-19-56-46l-171 0c-5 27-29 46-56 46-28 0-52-19-57-46l-14 0c-11 0-19 9-19 20l0 23c0 37 29 68 66 68l323 0c30 0 56-18 68-44 0 0 12-23 4-58"/>
<glyph glyph-name="calendar" unicode="&#101;" d="M449 462l-55 0 0 15c0 9-7 18-17 18-9 0-18-8-18-18l0-15-87 0 0 15c0 9-7 18-17 18-10 0-17-8-17-18l0-15-87 0 0 15c0 9-8 18-18 18-9 0-17-8-17-18l0-15-53 0c-34 0-63-29-63-64l0-316c0-35 29-64 63-64l384 0c35 0 64 29 64 64l0 316c1 35-28 64-62 64z m29-380c0-16-13-30-29-30l-386 0c-16 0-29 14-29 30l0 211 444 0z m0 245l-444 0 0 71c0 17 13 30 29 30l55 0 0-15c0-10 7-18 17-18 9 0 18 7 18 18l0 15 87 0 0-15c0-10 7-18 17-18 10 0 17 7 17 18l0 15 87 0 0-15c0-10 8-18 18-18 9 0 17 7 17 18l0 15 55 0c16 0 29-13 29-30l0-71z"/>
<glyph glyph-name="book-appointment" unicode="&#102;" d="M464 480c-14 19-38 32-67 32l-284 0c-30 0-54-13-67-32-8-11-11-22-11-35l0-378c0-21 11-40 29-54 14-8 30-13 49-13l286 0c19 0 35 5 49 13 18 14 29 33 29 54l0 378c-3 13-5 24-13 35z m-22-172l0-241c0-21-21-40-45-40l-284 0c-25 0-46 19-46 40l0 378c0 16 11 27 24 35 6 3 14 5 22 5l284 3c8 0 13-3 21-5 14-6 24-19 24-35l0-140z m-257 8l139 0c8 0 14 6 14 14 0 8-6 13-14 13l-139 0c-8 0-13-5-13-13 0-8 8-14 13-14z m174-56l-209 0c-5 0-11-5-11-13 0-8 6-14 11-14l209 0c6 0 11 6 11 14 0 8-5 13-11 13z m0-86l-209 0c-5 0-11-5-11-13 0-8 6-14 11-14l209 0c6 0 11 6 11 14 0 5-5 13-11 13z"/>
<glyph glyph-name="card" unicode="&#103;" d="M43 76c-24 0-43 20-43 43l0 274c0 23 19 43 43 43l426 0c24 0 43-20 43-43l0-274c0-23-19-43-43-43z m-17 46c0-11 6-18 17-18l426 0c11 0 17 7 17 18l0 165-460 0z m0 191l460 0 0 28-460 0z m17 99c-11 0-17-6-17-17l0-26 460 0 0 26c0 11-6 17-17 17z"/>
<glyph glyph-name="card-arrow" unicode="&#104;" d="M119 169c-20 0-36 16-36 36l0 229c0 19 16 36 36 36l357 0c20 0 36-17 36-36l0-229c0-20-16-36-36-36z m-14 36c0-9 5-15 14-15l357 0c9 0 14 6 14 15l0 138-385 0z m385 160l0 24-385 0 0-24z m0 45l0 22c0 9-5 14-14 14l-357 0c-9 0-14-5-14-14l0-22z m-490-317l49 49 12-13-29-29 127 0c16 0 30 13 30 31l0 47 18 0 0-47c0-26-21-47-47-47l-126 0 29-29-13-13z m0 97l0 47c0 25 22 47 47 47l126 0-29 29 13 12 49-48-49-49-13 13 29 29-126 0c-16 0-31-13-31-31l0-47-16 0z"/>
<glyph glyph-name="cloud" unicode="&#105;" d="M256 43c-8 0-16 5-16 15l0 171-36-36c-2-3-5-3-10-3-5 0-8 3-10 5-3 3-3 5-3 11 0 5 3 7 5 10l62 57c3 2 5 2 11 2 5 0 7-2 10-2l62-57c5-5 5-16 0-21-3-2-5-5-10-5-3 0-8 0-11 3l-38 36 0-171c0-8-8-15-16-15z m67 46c-8 0-13 5-15 13 0 3 2 8 5 10 2 3 5 6 10 6l62 0c55 0 99 44 99 98 0 52-39 93-88 98-8 0-13 5-13 13-3 29-16 54-36 75-24 23-55 36-91 36-34 0-65-13-88-36-28-28-41-65-36-103 0-3 0-8-3-11-2-5-7-7-10-7l-8 0c-46 0-80-37-80-81 0-44 36-80 80-80l78 0c8 0 15-5 15-13 0-2-2-7-5-10-2-3-5-5-10-5l-80 0c-60 0-109 49-109 108 0 57 44 104 101 109l2 0 0 3c0 41 16 82 44 111 29 28 68 46 109 46 41 0 80-15 109-46 20-21 36-49 41-80l0-3 3 0c59-10 103-65 103-124 0-70-57-127-127-127z"/>
<glyph glyph-name="heart" unicode="&#106;" d="M256 26c-6 0-10 3-13 6l-205 214c-51 55-51 144 0 199 26 25 61 41 96 41 36 0 71-16 96-41l26-26 26 26c25 25 60 41 96 41 35 0 70-16 96-41 51-55 51-144 0-199l-205-214c-3-3-10-6-13-6m-122 425c-25 0-51-9-70-32-38-41-38-109 0-147l189-202 189 199c38 41 38 109 0 150-20 19-45 32-71 32-25 0-51-9-70-32l-39-38c-3-3-9-7-12-7-7 0-10 4-13 7l-39 38c-12 19-38 32-64 32"/>
<glyph glyph-name="offer" unicode="&#107;" d="M234 316c0 22-18 39-40 39-22 0-39-17-39-39 0-22 17-40 39-40 22 0 40 18 40 40z m-57 0c0 8 6 17 17 17 11 0 18-6 18-17 0-11-7-18-16-18-13 2-19 9-19 18z m143-86c-22 0-40-18-40-40 0-22 18-40 40-40 22 0 40 18 40 40 0 22-18 40-40 40z m0-58c-9 0-18 7-18 18 0 11 7 17 18 17 11 0 18-6 18-15-3-11-9-20-18-20z m9 183c-2 2-5 2-7 2-4 0-6-2-9-4l-132-183c-2-2-2-4-2-9 0-2 2-7 4-9 2-2 5-2 7-2 4 0 6 2 9 4l132 184c4 6 4 13-2 17z m179-90c-3 2-3 2-5 4l-66 38 37 66c3 7 3 13-4 15-2 3-4 3-7 3l-75 0 0 75c0 6-4 13-11 13-2 0-4 0-6-2l-66-38-38 66c-2 5-7 5-11 5-2 0-4 0-7-2-2 0-2-3-4-5l-37-66-67 37c-2 0-4 3-6 3-5 0-9-3-11-7 0 2 0 0 0-2l0-77-78 0c-6 0-13-5-13-11 0-3 0-5 2-7l38-66-66-40c-7-2-9-11-5-15 3-3 3-3 5-5l66-37-38-67c-2-6-2-13 5-15 2-2 4-2 6-2l78 0 0-77c0-7 4-14 11-14 2 0 4 0 6 3l66 37 38-66c2-5 7-7 11-7 2 0 4 0 7 2 2 3 2 3 4 5l38 66 66-37c2 0 4-3 6-3 5 0 9 3 11 7 3 2 3 4 3 7l0 77 77 0c6 0 13 4 13 11 0 2 0 4-2 6l-38 67 67 37c2 2 4 5 4 7-2 4-2 9-4 11z m-93-40c-2-2-4-4-7-7 0-2 0-6 3-8l33-60-69 0c-6 0-13-4-13-13l0-69-55 36c-2 0-5 2-7 2-4 0-9-2-11-7l-33-59-33 59c-2 5-7 7-11 7-2 0-4 0-7-2l-59-33 0 68c0 7-5 13-14 13l-68 0 33 60c2 2 2 6 2 9 0 2-2 4-6 6l-55 31 59 33c2 3 5 5 7 7 0 2 0 7-2 9l-34 59 69 0c7 0 13 5 13 14l0 68 60-33c2 0 4-2 6-2 5 0 9 2 11 6l33 60 34-60c2-4 6-6 11-6 2 0 4 0 6 2l60 33 0-68c0-7 4-14 13-14l68 0-42-57c-2-2-2-7-2-9 0-2 2-6 7-6l59-34z"/>
<glyph glyph-name="star-stroke" unicode="&#108;" d="M402 7c-6 0-12 3-21 6l-122 63-122-63c-6-3-12-6-21-6-9 0-18 3-24 12-3 6-6 12-6 21 0 3 0 3 0 9l24 134-98 98c-9 9-12 18-12 27 0 6 3 27 30 30l134 21 62 125c9 18 21 21 30 21 6 0 21-3 30-21l59-122 137-21c30-6 30-24 30-30 0-9-3-18-12-27l-92-98 21-137c0-3 0-6 0-9 0-9-3-15-6-21-6-6-12-12-21-12z m-6 39l-27 152 110 104-152 21-68 140-68-140-152-21 110-107-27-149 137 72z"/>
<glyph glyph-name="support" unicode="&#109;" d="M259 0c-28 0-54 20-61 48-5 15-3 33 7 48 8 16 23 26 38 28 5 3 10 3 16 3 27 0 53-18 60-46l97 0 0 41-18 0c-8 0-15 7-15 15l0 160c0 7 7 15 15 15l25 0 0 5c0 91-73 165-164 165-92 0-165-74-165-165l0-5 25 0c8 0 15-8 15-15l0-160c0-8-7-15-15-15l-56 0c-30 0-53 25-53 53l0 84c0 27 23 53 51 53l0 5c0 106 86 195 195 195 106 0 195-86 195-195l0-5c28-3 51-26 51-53l0-84c0-31-26-53-53-53l-5 0 0-56c0-8-8-15-16-15l-109 0c-5-23-22-43-45-48-5-3-10-3-15-3z m0 94c-18 0-33-15-33-33 0-18 15-33 33-33 17 0 33 15 33 33 0 20-16 33-33 33z m192 58c13 0 23 10 23 23l0 84c0 12-10 22-23 22l-40 0 0-129z m-385 129c-13 0-23-10-23-22l0-84c0-13 10-23 23-23l40 0 0 129z"/>
<glyph glyph-name="wallet-arrow" unicode="&#110;" d="M489 341l-10 0 0 62c0 25-21 46-45 46l-10 0 0 23c0 17-13 30-30 30l-280 0c-21 0-38-17-38-38l0-209-8 0c-28 0-49-21-49-48l0-45 19 0 0 47c0 18 15 31 32 31l8 0 0-80c0-17 13-31 30-31l103 0 0-34c0-17-13-30-32-30l-149 0 27 28-11 12-46-48 46-47 11 11-25 27 147 0c28 0 49 21 49 47l0 34 204 0c25 0 46 21 46 46l0 63 9 0c13 0 25 11 25 25l0 55c2 11-10 23-23 23z m-375 142l278 0c6 0 9-3 9-9l0-23-287 0c-9 0-17 8-17 17 0 8 8 15 17 15z m343-308c0-13-12-25-25-25l-325 0c-6 0-10 4-10 10l0 80 120 0-27-29 12-11 45 47-45 48-12-11 25-27-118 0 0 175c6-2 11-4 17-4l318 0c13 0 25-11 25-25l0-62-75 0c-13 0-24-12-24-25l0-55c0-14 11-25 24-25l75 0z m36 88c0-2-2-4-4-4l-105 0c-2 0-3 2-3 4l0 55c0 2 1 4 3 4l105 0c2 0 4-2 4-4z"/>
<glyph glyph-name="user" unicode="&#111;" d="M38 0l0 73c0 85 45 157 121 197l15 6-12 12c-21 27-33 60-33 94 0 75 54 130 127 130 73 0 127-55 127-130 0-34-12-67-33-94l-12-12 15-6c76-37 121-112 121-197l0-73z m170 254c-82-21-137-96-137-181l0-40 376 0 0 40c0 85-58 157-136 181l-7 0c-15-6-30-9-45-9-15 0-27 3-42 9z m51 228c-58 0-97-40-97-97 0-61 43-106 97-106 52 0 97 48 97 106 0 54-42 97-97 97z"/>
<glyph glyph-name="time" unicode="&#112;" d="M490 356c-26 62-72 108-137 134-32 14-65 22-100 22-35 0-67-8-99-22-62-26-108-72-135-134-14-33-19-65-19-100 0-35 5-67 19-100 27-62 73-108 135-134 32-14 64-22 99-22 35 0 68 8 100 22 65 26 111 72 137 134 14 33 22 65 22 100 0 35-8 67-22 100z m-26-189c-25-54-65-94-122-119-29-10-56-18-89-18-32 0-59 8-89 18-54 25-94 65-118 119-11 30-16 57-16 89 0 32 5 59 16 89 24 54 64 94 118 119 30 10 57 18 89 18 33 0 60-8 89-18 57-25 97-65 122-119 10-30 18-57 18-89 0-32-8-59-18-89z m-208 62l0 146c0 8-8 16-16 16-8 0-16-8-16-16l0-151c0-6 0-8 5-14l84-83c5-6 16-6 21 0 6 5 6 16 0 21z"/>
<glyph glyph-name="pickup" unicode="&#113;" d="M498 225l-13 0 0 41c0 6-5 12-11 12l-262 0c-5 0-10 4-11 9l0 63c0 6-5 11-12 11l-75 0c-10 0-16-3-22-11l-41-63 23 0c6 0 6-9 0-9l-30 0c-10 0-17-9-17-18l0-35-13 0c-4 0-7-3-7-7l0-17c0-4 3-7 7-7l27 0c1 27 25 50 52 50 28 0 51-23 52-50l196 0 0 1c0 6 5 11 11 11l83 0c6 0 11-5 11-11l0-1 51 0c4 0 7 3 7 7l0 17c0 4-2 7-6 7z m-411 75c-4 0-4 3-2 7l23 33c3 4 5 5 8 5l34 0c4 0 7-3 7-7l0-31c0-4-3-7-7-7z m77-26c-2 0-4 1-5 2l-17 0c-6 0-6 10 0 10l17 0c1 1 3 2 5 2 8 1 8-14 0-14z m249-76c1-2 1-4 1-8 0-10-8-19-20-19-10 0-19 8-19 19 0 3 0 6 1 8l-21 0c0-2-1-4-1-8 0-21 18-38 39-38 22 0 39 17 39 38 0 3 0 6-1 8z m-319 32c-21 0-39-17-39-39 0-21 18-38 39-38 22 0 39 17 39 38 0 22-17 39-39 39z m0-58c-10 0-19 8-19 19 0 11 8 20 19 20 10 0 20-8 20-20-1-11-10-19-20-19z"/>
<glyph glyph-name="box" unicode="&#114;" d="M395 211c-25 0-47-23-47-49 0-28 22-49 47-49 26 0 47 22 47 49-1 26-21 49-47 49z m0-78c-14 0-26 12-26 28 0 15 11 27 26 27 15 0 27-12 27-27-1-16-12-28-27-28z m-249 78c-26 0-47-23-47-49 0-28 22-49 47-49 26 0 48 22 48 49 0 26-21 49-48 49z m0-78c-15 0-26 12-26 28 0 15 11 27 26 27 15 0 27-12 27-27 0-16-12-28-27-28z m342 241c-4 15-16 25-29 25l-331 0c-9 0-17-4-24-12l-86-112c-5-6-8-14-8-22l0-10 35 0c8 0 15-7 15-16l0-16c0-8-7-15-15-15l-3 0c0 1 0 1 0 2l0 16c0 6-4 10-8 10l-21 0c-4 0-8-5-8-10l0-16c0-5 3-11 7-11 4-13 16-22 29-22l44 0c0 33 28 60 61 60 34 0 62-26 62-60l126 0c0 33 27 60 61 60 34 0 62-26 62-60l19 0c17 0 31 15 31 34 1 37 0 100-19 175z m-280-112l-15 0c-4 0-6 2-6 5 0 3 2 5 6 5l15 0c3 0 5-2 5-5 0-3-2-5-5-5z m12 44c0-7-6-14-14-14l-119 0c-11 0-18 13-11 22l42 56c3 3 7 5 11 5l76 0c8 0 14-6 14-15l0-54z m124 0c0-7-6-14-14-14l-56 0c-8 0-14 6-14 14l0 55c0 8 6 15 14 15l56 0c8 0 14-6 14-15z m105 0c0-7-7-14-15-14l-55 0c-8 0-14 6-14 14l-1 0 0 55c0 8 6 15 14 15l55 0c8 0 14-6 14-15l0-55z"/>
<glyph glyph-name="jeep" unicode="&#115;" d="M28 268l0-45-21 0 0-32c0-9 5-13 13-13l8 0c1 19 9 34 24 47 16 14 33 20 52 20 20 0 38-6 54-20 15-13 23-28 25-47l42 0-60 90z m360 13l14 29c2 5 0 11-4 13-5 2-10 0-12-5l-17-38c-25-4-45-18-62-46l-68 0 44 48 15-16c2-2 4-3 6-3 2 0 5 1 6 3 3 4 3 9 0 14l-44 44c-4 3-9 3-13 0-3-5-3-10 0-14l15-14-37-40-1 56 37 83c2 5 0 11-5 13-5 2-10 0-12-6l-39-88-161 0c-11 1-17-5-18-18l0-25 145 0 69-104 84 0c1 19 9 36 25 49 16 13 34 21 54 21 20 0 37-8 54-21 15-13 24-30 25-49l19 0 0 114z m-282-71c-14 0-26-5-36-15-11-11-16-23-16-38 0-15 5-27 16-37 10-10 22-16 36-16 15 0 28 6 38 16 11 10 16 22 16 37 0 14-5 27-16 38-11 9-23 15-38 15z m17-70c-4-4-10-7-17-7-6 0-11 2-15 7-4 4-7 11-7 16 0 6 2 12 7 16 4 4 10 7 15 7 7 0 13-2 17-7 4-4 7-10 7-16-1-5-3-11-7-16z m290 70c-15 0-28-5-38-15-10-11-16-23-16-38 0-15 6-27 16-37 10-10 22-16 38-16 14 0 27 6 38 16 10 10 15 22 15 37 0 14-5 27-15 38-12 9-24 15-38 15z m15-70c-4-4-10-7-16-7-6 0-13 2-17 7-4 4-7 11-7 16 0 6 2 12 7 16 4 4 11 7 17 7 6 0 11-2 16-7 4-4 7-10 7-16 0-5-3-11-7-16z"/>
<glyph glyph-name="minibus" unicode="&#116;" d="M373 208c-17 0-31-13-31-31 0-17 13-31 31-31 16 0 30 14 30 31-1 17-14 31-30 31z m0-47c-8 0-16 7-16 16 0 9 8 17 16 17 8 0 15-8 15-17 0-9-7-16-15-16z m126 205l-310 0c-26 0-60-28-60-28l-109-87c-9-7-15-19-15-31 0-21 6-39 28-39l15 0c2 20 19 35 38 35 19 0 36-14 38-34l211 0c2 20 18 34 38 34 19 0 36-14 38-34l6 0 83 8c4 0 8 4 8 9l0 158c-1 5-4 9-9 9z m-474-143c-2-3-7-4-10-4-3 0-5 2-5 4 1 3 3 15 9 19 7 4 8 4 9 1 1-2-1-17-3-20z m140 50l-87 0c-4 0-8 6-1 12 13 11 38 30 50 41 13 11 25 10 25 10l13 0c4 0 8-3 8-8l0-47c0-5-4-8-8-8z m134 0l-93 0c-4 0-8 3-8 9l0 47c0 4 3 8 8 8l93 0c4 0 8-3 8-8l0-47c-1-6-4-9-8-9z m128 9c0-4-3-9-8-9l-93 0c-4 0-9 3-9 9l0 47c0 4 4 8 9 8l93 0c4 0 8-3 8-8z m69 0c0-4-3-9-9-9l-41 0c-4 0-8 3-8 9l0 47c0 4 3 8 8 8l41 0c5 0 9-3 9-8z m-410-74c-16 0-31-13-31-31 0-17 14-31 31-31 16 0 31 14 31 31 0 17-15 31-31 31z m0-47c-8 0-15 7-15 16 0 9 7 17 15 17 8 0 15-8 15-17 0-9-6-16-15-16z"/>
<glyph glyph-name="location" unicode="&#117;" d="M256 421c-53 0-95-43-95-95 0-54 43-96 95-96 53 0 95 43 95 96 0 52-42 95-95 95z m0-156c-33 0-59 27-59 60 0 32 26 59 59 59 33 0 59-27 59-59 1-33-25-60-59-60z m0 239c-104 0-188-83-188-185 0-39 13-77 36-110l152-201 152 201c24 32 36 71 36 110 1 102-84 185-188 185z m124-274l-124-163-123 163c-19 26-31 58-31 89 0 82 69 150 154 150 85 0 154-67 154-150 0-32-11-63-30-89z"/>
<glyph glyph-name="used-car" unicode="&#118;" d="M117 272c-23 0-40-18-40-42 0-23 17-42 40-42 22 0 40 19 40 42 0 24-19 42-40 42m0-56c-8 0-15 7-15 15 0 9 7 16 15 16 8 0 14-7 14-16 0-8-6-15-14-15m278 56c-22 0-40-18-40-42 0-23 18-42 40-42 23 0 40 19 40 42 0 24-17 42-40 42m0-56c-8 0-14 7-14 15 0 9 6 16 14 16 8 0 16-7 16-16 0-8-7-15-16-15m101-26l0 66c0 35-27 63-59 63l-15 0-35 110c-2 6-6 9-12 9l-238 0c-6 0-10-4-12-9l-35-110-14 0c-32 0-59-28-59-63l0-66c0-24 14-46 32-56l0-47c0-7 6-14 13-14l75 0c6 0 14 6 14 14l0 40 220 0 0-40c0-7 6-14 13-14l75 0c6 0 13 6 13 14l0 51c13 12 24 31 24 52z m-350 222l221 0 28-94-277 0z m-21-310l-49 0 0 27 49 0z m-49 53c-19 0-33 16-33 35l0 66c0 19 15 36 33 36l360 0c19 0 33-17 33-36l0-66c0-19-15-35-33-35z m368-53l-49 0 0 27 42 0c3 0 6 0 7 1z"/>
</font>
</defs>
</svg>
