<?xml version="1.0" standalone="no"?>
<!DOCTYPE svg PUBLIC "-//W3C//DTD SVG 1.1//EN" "http://www.w3.org/Graphics/SVG/1.1/DTD/svg11.dtd" >
<svg xmlns="http://www.w3.org/2000/svg">
<metadata>Generated by IcoMoon</metadata>
<defs>
<font id="icomoon" horiz-adv-x="1024">
<font-face units-per-em="1024" ascent="960" descent="-64" />
<missing-glyph horiz-adv-x="1024" />
<glyph unicode="&#x20;" horiz-adv-x="512" d="" />
<glyph unicode="&#xe900;" glyph-name="1" horiz-adv-x="1059" d="M636.984 496.365c-33.368 0-60.487 27.154-60.487 60.487 0 33.368 27.118 60.487 60.487 60.487 33.333 0 60.487-27.118 60.487-60.487 0-33.333-27.154-60.487-60.487-60.487zM388.036 496.365c-33.368 0-60.487 27.154-60.487 60.487 0 33.368 27.118 60.487 60.487 60.487 33.333 0 60.487-27.118 60.487-60.487 0-33.333-27.154-60.487-60.487-60.487zM698.138 222.501c-9.958 0-19.279 4.414-25.671 12.076-39.548 48.128-97.916 75.705-160.132 75.705-62.040 0-120.302-27.436-159.885-75.282-6.321-7.662-15.642-12.076-25.6-12.076-7.662 0-15.148 2.719-21.080 7.627-6.815 5.614-11.052 13.559-11.864 22.387-0.847 8.828 1.801 17.443 7.45 24.258 52.153 63.17 129.059 99.399 210.979 99.399 82.061 0 159.108-36.405 211.403-99.858 11.582-14.124 9.534-35.063-4.555-46.68-6.003-4.943-13.277-7.556-21.045-7.556zM512.501 893.691c-246.042 0-446.182-200.139-446.182-446.146 0-246.042 200.139-446.182 446.182-446.182s446.217 200.139 446.217 446.182c0 246.007-200.174 446.146-446.217 446.146zM512.501-64.95c-282.589 0-512.494 229.906-512.494 512.494 0 282.553 229.906 512.459 512.494 512.459s512.494-229.906 512.494-512.459c0-282.589-229.906-512.494-512.494-512.494z" />
<glyph unicode="&#xe901;" glyph-name="2" d="M508.984 900.756c-247.985 0-449.713-201.728-449.713-449.677 0-247.985 201.728-449.748 449.713-449.748 247.949 0 449.713 201.763 449.713 449.748 0 247.949-201.763 449.677-449.713 449.677zM508.984-57.884c-280.647 0-508.963 228.317-508.963 508.963 0 280.611 228.317 508.928 508.963 508.928 280.611 0 508.928-228.317 508.928-508.928 0-280.647-228.317-508.963-508.928-508.963zM633.432 499.896c-33.333 0-60.487 27.154-60.487 60.487 0 33.368 27.154 60.487 60.487 60.487 33.368 0 60.522-27.118 60.522-60.487 0-33.333-27.154-60.487-60.522-60.487zM384.501 499.896c-33.333 0-60.487 27.154-60.487 60.487 0 33.368 27.154 60.487 60.487 60.487s60.451-27.118 60.451-60.487c0-33.333-27.118-60.487-60.451-60.487zM354.018 281.187c-18.291 0-33.121 14.866-33.121 33.121 0 18.326 14.83 33.192 33.121 33.192h309.389c18.255 0 33.121-14.866 33.121-33.192 0-18.255-14.866-33.121-33.121-33.121h-309.389z" />
<glyph unicode="&#xe902;" glyph-name="3" horiz-adv-x="1059" d="M515.535 900.756c-250.986 0-455.186-201.728-455.186-449.677 0-247.985 204.2-449.748 455.186-449.748s455.186 201.763 455.186 449.748c0 247.949-204.2 449.677-455.186 449.677zM515.535-57.884c-284.248 0-515.531 228.317-515.531 508.963 0 280.611 231.283 508.928 515.531 508.928 284.284 0 515.531-228.317 515.531-508.928 0-280.647-231.247-508.963-515.531-508.963zM327.571 376.638c-7.097 0-13.736-2.366-19.244-6.815-6.144-5.049-9.993-12.182-10.734-20.056-0.777-7.804 1.624-15.466 6.674-21.575 52.224-62.641 129.271-98.586 211.403-98.586 81.92 0 158.897 35.769 211.121 98.163 5.049 6.073 7.45 13.665 6.709 21.469-0.706 7.874-4.555 15.007-10.805 20.092-5.508 4.484-12.147 6.85-19.244 6.85-9.039 0-17.549-3.955-23.305-10.805-40.678-48.693-100.599-76.588-164.476-76.588-63.947 0-124.010 28.072-164.687 76.977-5.756 6.921-14.301 10.876-23.411 10.876zM641.568 496.379c-35.805 0-64.9 28.707-64.9 63.982 0 35.346 29.096 64.018 64.9 64.018s64.9-28.672 64.9-64.018c0-35.275-29.096-63.982-64.9-63.982zM389.501 496.379c-35.805 0-64.9 28.707-64.9 63.982 0 35.346 29.096 64.018 64.9 64.018s64.9-28.672 64.9-64.018c0-35.275-29.096-63.982-64.9-63.982z" />
<glyph unicode="&#xe903;" glyph-name="4" horiz-adv-x="1059" d="M515.535 900.756c-250.986 0-455.186-201.728-455.186-449.677 0-247.985 204.2-449.748 455.186-449.748s455.186 201.763 455.186 449.748c0 247.949-204.2 449.677-455.186 449.677zM515.535-57.884c-284.248 0-515.531 228.317-515.531 508.963 0 280.611 231.283 508.928 515.531 508.928 284.284 0 515.531-228.317 515.531-508.928 0-280.647-231.247-508.963-515.531-508.963zM641.568 496.379c-35.805 0-64.9 28.707-64.9 63.982 0 35.346 29.096 64.018 64.9 64.018s64.9-28.672 64.9-64.018c0-35.275-29.096-63.982-64.9-63.982zM389.501 496.379c-35.805 0-64.9 28.707-64.9 63.982 0 35.346 29.096 64.018 64.9 64.018s64.9-28.672 64.9-64.018c0-35.275-29.096-63.982-64.9-63.982zM515.775 221.982c-92.372 0-179.165 43.22-238.133 118.572-6.321 8.086-7.627 19.562-3.354 29.131 3.955 8.863 12.288 14.583 21.222 14.583l440.214-0.494c8.828 0 17.126-5.756 21.080-14.654 4.273-9.604 2.966-21.010-3.354-28.99-58.933-75.105-145.585-118.148-237.674-118.148z" />
<glyph unicode="&#xe904;" glyph-name="5" horiz-adv-x="1059" d="M515.535 900.756c-250.986 0-455.186-201.728-455.186-449.677 0-247.985 204.2-449.748 455.186-449.748s455.186 201.763 455.186 449.748c0 247.949-204.2 449.677-455.186 449.677zM515.535-57.884c-284.248 0-515.531 228.317-515.531 508.963 0 280.611 231.283 508.928 515.531 508.928 284.284 0 515.531-228.317 515.531-508.928 0-280.647-231.247-508.963-515.531-508.963zM323.379 346.808c-16.949 0-32.415-9.746-39.618-25.035-7.239-15.325-4.943-33.439 5.791-46.504 54.272-65.889 134.321-103.671 219.56-103.671 84.992 0 164.899 37.606 219.136 103.212 10.805 13.030 13.030 31.144 5.862 46.504-7.239 15.254-22.599 25.106-39.548 25.106l-371.182 0.388zM329.604 487.276c14.336 0 28.637 5.473 39.583 16.384l59.357 59.321c21.822 21.857 21.822 57.309 0 79.13-21.857 21.857-57.273 21.857-79.166 0l-19.774-19.774-19.809 19.774c-21.928 21.857-57.344 21.857-79.13 0-21.822-21.822-21.822-57.273 0-79.13l59.357-59.321c10.911-10.911 25.247-16.384 39.583-16.384zM718.018 487.276c14.301 0 28.672 5.473 39.548 16.384l59.392 59.321c21.822 21.857 21.822 57.309 0 79.13-21.857 21.857-57.273 21.857-79.13 0l-19.809-19.774-19.809 19.774c-21.928 21.857-57.344 21.857-79.13 0-21.857-21.822-21.857-57.273 0-79.13l59.357-59.321c10.911-10.911 25.247-16.384 39.583-16.384z" />
<glyph unicode="&#xe905;" glyph-name="Book_an_appointment" horiz-adv-x="866" d="M83.988 785.529c0 49.734 39.942 90.057 89.206 90.057h520.073c49.264 0 89.206-40.323 89.206-90.057v-699.295c0-49.745-39.942-90.057-89.206-90.057h-520.073c-49.264 0-89.206 40.312-89.206 90.057v699.295zM173.194-48.852h520.073c73.896 0 133.81 60.474 133.81 135.086v699.295c0 74.601-59.913 135.086-133.81 135.086h-520.073c-73.896 0-133.81-60.485-133.81-135.086v-699.295c0-74.613 59.913-135.086 133.81-135.086zM305.532 557.065h255.398c13.139 0 23.78 13.557 23.78 30.296 0 16.723-10.642 30.296-23.78 30.296h-255.398c-13.127 0-23.78-13.573-23.78-30.296 0-16.738 10.653-30.296 23.78-30.296zM241.88 375.29h382.702c11.438 0 20.72 13.573 20.72 30.296s-9.283 30.296-20.72 30.296h-382.702c-11.438 0-20.72-13.573-20.72-30.296s9.283-30.296 20.72-30.296zM241.88 193.515h382.702c11.438 0 20.72 13.573 20.72 30.296s-9.283 30.296-20.72 30.296h-382.702c-11.438 0-20.72-13.573-20.72-30.296s9.283-30.296 20.72-30.296z" />
<glyph unicode="&#xe906;" glyph-name="Location" horiz-adv-x="731" d="M365.57 960c-201.577 0-365.57-165.519-365.57-368.969 0-252.487 327.15-623.154 341.078-638.81 13.083-14.707 35.925-14.681 48.984 0 13.929 15.656 341.078 386.322 341.078 638.81-0.004 203.45-163.996 368.969-365.57 368.969z" />
<glyph unicode="&#xe907;" glyph-name="Empty_bag" horiz-adv-x="803" d="M652.732 3.537h-505.261c-54.015 0-97.822 36.506-99.282 80.314l55.475 627.907h99.297v-87.615c0-13.142 11.697-24.824 24.824-24.824 13.157 0 24.839 11.682 24.839 24.824v87.615h293.496v-87.615c0-13.142 11.697-24.824 24.824-24.824 13.157 0 24.839 11.682 24.839 24.824v87.615h99.282l55.489-627.907c0-43.807-43.807-80.314-97.822-80.314zM400.094 908.891c80.314 0 146.025-65.711 146.025-146.025h-293.496c1.446 80.314 67.157 146.025 147.471 146.025zM744.727 739.502c-1.475 13.142-11.682 23.364-24.824 23.364h-121.201c0 108.058-89.090 197.134-197.134 197.134-108.073 0-197.134-87.615-197.134-197.134h-121.201c-13.142 0-23.379-10.222-24.824-23.364l-58.41-651.271v-2.921c0-73.012 67.157-131.422 148.945-131.422h505.246c81.759 0 148.945 58.41 148.945 131.422v2.921l-58.41 651.271zM261.434 478.118c-28.027 0-51.383-27.28-51.383-60.725 0-10.108 2.233-20.095 6.54-29.241 3.26-7.016 11.603-10.062 18.619-6.792 2.99 1.392 5.4 3.793 6.792 6.792 3.027 8.38 10.575 14.294 19.432 15.228 8.894-0.906 16.48-6.82 19.525-15.228 3.26-7.016 11.603-10.062 18.619-6.792 2.99 1.392 5.4 3.793 6.792 6.792 4.269 9.155 6.474 19.133 6.446 29.241 0 33.445-23.356 60.725-51.383 60.725zM541.703 478.118c-28.027 0-51.383-27.28-51.383-60.725 0-10.108 2.233-20.095 6.54-29.241 3.27-7.016 11.594-10.062 18.61-6.792 3.008 1.392 5.409 3.793 6.801 6.792 2.709 10.753 13.621 17.283 24.374 14.574 7.184-1.803 12.771-7.399 14.583-14.574 3.26-7.016 11.603-10.062 18.619-6.792 2.99 1.392 5.4 3.793 6.792 6.792 4.279 9.155 6.474 19.133 6.446 29.241 0 33.445-23.356 60.725-51.383 60.725zM527.225 151.137c-6.119 0-11.996 2.42-16.349 6.726-60.678 59.697-158.025 59.697-218.703 0-9.043-9.202-23.823-9.333-33.034-0.299-9.202 9.043-9.324 23.832-0.29 33.044 0.178 0.168 0.355 0.346 0.533 0.514 78.858 77.569 205.344 77.569 284.193 0 9.174-9.053 9.286-23.842 0.224-33.034-4.372-4.428-10.342-6.941-16.573-6.951z" />
<glyph unicode="&#xe908;" glyph-name="Gift" horiz-adv-x="1069" d="M1001.739 493.832h-434.087v133.565h434.087v-133.565zM567.652 26.354v400.696h367.304v-400.696h-367.304zM679.179 873.425c27.114 27.181 74.129 27.114 101.176 0 27.982-28.182 27.982-74.129 0-102.311-28.783-28.984-116.87-76.934-163.016-76.934-9.55 0-12.355 2.137-12.422 2.204-15.494 16.095 29.251 131.762 74.262 177.041zM500.87 493.832h-434.087v133.565h434.087v-133.565zM133.565 26.354v400.696h367.304v-400.696h-367.304zM288.167 873.425c13.557 13.624 31.521 21.103 50.621 21.103 19.033 0 36.998-7.48 50.554-21.103 45.011-45.279 89.756-160.946 74.195-177.041 0 0-2.805-2.204-12.355-2.204-46.147 0-134.233 47.95-163.016 76.934-27.982 28.182-27.982 74.129 0 102.311zM1001.739 694.18h-211.3c15.16 10.351 28.182 20.636 37.265 29.852 53.827 54.161 53.827 142.314 0 196.474-52.291 52.625-143.516 52.691-195.873 0-28.917-29.050-105.784-147.322-95.165-226.326h-4.808c10.552 79.004-66.248 197.276-95.165 226.326-52.358 52.691-143.583 52.625-195.873 0-53.827-54.161-53.827-142.314-0.067-196.474 9.149-9.216 22.172-19.501 37.331-29.852h-211.3c-36.797 0-66.783-29.985-66.783-66.783v-166.957c0-18.432 14.959-33.391 33.391-33.391h33.391v-400.696c0-36.797 29.985-66.783 66.783-66.783h801.391c36.797 0 66.783 29.985 66.783 66.783v400.696h33.391c18.432 0 33.391 14.959 33.391 33.391v166.957c0 36.797-29.985 66.783-66.783 66.783z" />
<glyph unicode="&#xe909;" glyph-name="Payment_01" horiz-adv-x="1178" d="M1118.479 308.703c0-4.346-3.378-7.722-7.722-7.722h-283.3c-4.344 0-7.722 3.376-7.722 7.722v146.476c0 4.1 3.378 7.72 7.722 7.72h283.3c4.102 0 7.722-3.376 7.722-7.72v-146.476zM1024.85 74.872c0-36.682-29.923-66.602-66.602-66.602h-874.513c-14.237 0-26.062 11.583-26.062 26.062v731.413c13.513-6.513 28.475-10.133 44.401-10.133h856.173c36.679 0 66.602-29.923 66.602-66.602v-168.197h-197.634c-36.197 0-65.637-29.438-65.637-65.634v-146.476c0-36.197 29.44-65.637 65.637-65.637h197.634v-168.194zM102.075 902.085h746.618c14.237 0 26.062-11.581 26.062-25.818l-0.241-62.741h-772.438c-24.372 0-44.16 19.785-44.16 44.16 0 24.372 19.788 44.399 44.16 44.399zM1110.757 520.813h-27.992v168.197c0 68.774-55.984 124.517-124.517 124.517h-25.82l0.241 62.5c0 46.332-37.645 83.974-83.976 83.974h-746.618c-55.743 0-101.351-44.882-102.075-100.624v-825.288c0-46.329 37.645-83.976 83.976-83.976h874.513c68.774 0 124.517 55.987 124.517 124.519v168.435h27.992c36.197 0 65.637 29.44 65.637 65.637v146.476c-0.241 36.197-29.681 65.634-65.878 65.634z" />
<glyph unicode="&#xe90a;" glyph-name="Payment_02" horiz-adv-x="1195" d="M1142.387 821.538h-920.064v56.704c0 22.741 15.915 38.656 38.656 38.656h842.795c22.741 0 38.613-15.915 38.613-38.656v-56.704zM222.323 713.165v65.237h920.064v-65.237h-920.064zM1142.387 336.461c0-22.741-15.872-38.656-38.613-38.656h-842.795c-22.741 0-38.656 15.915-38.656 38.656v152.448h223.275l-67.029-67.371 29.056-28.544 116.693 116.608-116.693 116.651-29.056-29.056 67.371-67.328h-223.616v140.203h920.064v-333.611zM1103.774 959.991h-842.795c-43.563 0-81.792-38.187-81.792-81.749v-348.373h-30.379c-23.125 0-44.587-7.040-62.336-19.115-29.611-20.053-49.024-54.016-49.024-92.288v-111.36h40.917v111.36c0 9.685 1.963 18.944 5.547 27.349 10.709 25.301 35.84 43.093 64.896 43.093h30.379v-152.491c0-43.52 38.229-81.749 81.792-81.749h184.96v-73.899c0-38.741-31.701-70.4-70.443-70.4h-297.216l66.987 67.328-28.629 28.629-116.608-116.693 116.608-116.181 28.629 28.587-67.328 67.371h297.557c61.653 0 111.403 49.749 111.403 111.36v73.899h616.875c43.52 0 81.749 38.229 81.749 81.749v541.824c0 43.563-38.229 81.749-81.749 81.749z" />
<glyph unicode="&#xe90b;" glyph-name="Payment_03" horiz-adv-x="1446" d="M115.411 899.144c-32.105 0-54.573-22.468-54.573-54.573v-80.053h1298.914v80.053c0 32.105-22.408 54.573-54.513 54.573h-1189.828zM60.838 611.581h1298.914v92.1h-1298.914v-92.1zM60.838 79.703c0-32.166 22.468-54.573 54.573-54.573h1189.828c32.105 0 54.513 22.408 54.513 54.573v470.98h-1298.914v-470.98zM115.411-35.768c-61.5 0-115.411 53.971-115.411 115.471v764.868c0 61.5 53.911 115.411 115.411 115.411h1189.828c61.44 0 115.411-53.911 115.411-115.411v-764.868c0-61.5-53.971-115.471-115.411-115.471h-1189.828z" />
<glyph unicode="&#xe90c;" glyph-name="Payment_04" horiz-adv-x="1063" d="M1017.903 459c0-3.348-2.599-5.908-5.947-5.908h-217.915c-3.348 0-5.947 2.56-5.947 5.908v112.679c0 3.151 2.599 5.947 5.947 5.947h217.915c3.151 0 5.947-2.639 5.947-5.947v-112.679zM945.869 279.131c0-28.199-23.001-51.239-51.2-51.239h-672.729c-10.949 0-20.047 8.901-20.047 20.086v163.84h207.833l-55.257-57.817 23.552-24.143 94.602 98.462-94.602 98.462-23.552-24.537 52.106-54.233h-204.682v362.575c10.398-5.002 21.898-7.798 34.146-7.798h658.629c28.199 0 51.2-23.001 51.2-51.239v-129.378h-151.985c-27.884 0-50.53-22.646-50.53-50.491v-112.679c0-27.845 22.646-50.491 50.53-50.491h151.985v-129.378zM236.040 915.468h574.346c10.949 0 20.047-8.94 20.047-19.889l-0.197-48.246h-594.196c-18.747 0-33.95 15.202-33.95 33.989 0 18.708 15.202 34.146 33.95 34.146zM1011.956 622.171h-21.504v129.378c0 52.894-43.087 95.783-95.783 95.783h-19.889l0.197 48.089c0 35.604-28.948 64.591-64.591 64.591h-574.346c-42.85 0-77.942-34.54-78.494-77.391v-434.609h-14.375c-57.423 0-103.778-44.386-103.778-98.462v-98.462h38.164v98.462c0 34.225 29.538 62.267 65.615 62.267h14.375v-164.037c0-35.682 28.948-64.63 64.591-64.63h212.322v-69.908c0-34.225-29.538-62.267-65.615-62.267h-305.979l55.296 57.738-23.276 24.222-94.878-98.658 94.878-98.265 23.276 24.182-52.5 54.587h303.183c57.423 0 103.778 43.953 103.778 98.462v69.908h422.203c52.933 0 95.783 43.087 95.783 95.823v129.536h21.543c27.845 0 50.491 22.646 50.491 50.491v112.679c-0.197 27.845-22.843 50.491-50.688 50.491z" />
<glyph unicode="&#xe90d;" glyph-name="Service_02" d="M81.142 524.66c46.908 147.256 167.386 260.242 315.85 298.898-55.012-82.648-80.964-210.372-90.822-309.146-37.090 17.178-84.948 23.588-126.17 23.588-35.8 0-70.144-4.686-98.858-13.34zM366.726 516.65c20.922 194.902 86.834 321.35 143.274 321.35 54.438 0 125.146-120.090 147.25-322.050-44.114 16.096-99.88 22.050-147.25 22.050-51.86 0-103.944-6.854-143.274-21.35zM623.964 823.612c150.014-38.602 271.61-151.604 318.818-298.93-28.698 8.642-63.014 13.318-98.782 13.318-41.398 0-89.276-6.466-126.256-23.628-10.22 99.694-37.362 226.7-93.78 309.24zM0 448c0-16.568 13.432-30 30-30 12.216 0 31.286 9.304 33.732 28.258 0.23 1.768 0.496 3.52 0.746 5.28 13.318 10.438 52.768 26.462 115.522 26.462 73.246 0 114.778-21.838 120.022-31.134 0.57-15.014 12.484-28.934 31.39-28.934 15.926 0 29.194 12.526 29.944 28.602 0.006 0.102 0.012 0.202 0.016 0.304 10.426 9.536 50.85 26.314 118.628 30.29v-421.13c0-33.084-26.916-60-60-60s-60 26.916-60 60v30c0 16.57-13.432 30-30 30s-30-13.43-30-30v-30c0-66.168 53.832-120 120-120s120 53.832 120 120v421.154c69.726-3.966 111.706-21.070 122.66-30.782 0.862-16.47 14.85-29.164 31.352-28.402 18.434 0.884 29.416 14.412 29.966 28.9 5.246 9.294 46.776 31.132 120.022 31.132 62.752 0 102.202-16.024 115.522-26.462 0.268-1.898 0.554-3.788 0.798-5.694 2.552-19.888 22.334-27.844 33.68-27.844 16.568 0 30 13.432 30 30 0 7.25-1.52 17.216-7.578 27.958-40.516 231.464-239.070 407.272-476.422 421.134v32.908c0 16.568-13.432 30-30 30s-30-13.432-30-30v-32.912c-238.17-13.98-432.306-190.704-472.43-421.142-6.050-10.738-7.57-20.698-7.57-27.946z" />
<glyph unicode="&#xe90e;" glyph-name="Service_04" horiz-adv-x="1170" d="M0 960.010v-835.096h470.65v80.408h-390.29v674.28h800.085v-327.339h80.408v407.747zM867.533 423.639v-184.856h-184.856v-80.408h184.856v-184.808h80.36v184.808h184.856v80.408h-184.856v184.856zM243.81 635.831h405.358v80.36h-405.358zM243.81 440.783h304.713v80.36h-304.713z" />
<glyph unicode="&#xe90f;" glyph-name="print" horiz-adv-x="945" d="M888.805 370.414c0-50.246-40.979-91.228-91.228-91.228h-25.536v65.075h36.658c15.445 0 27.801 12.356 27.801 27.801s-12.356 27.801-27.801 27.801h-679.58c-15.445 0-27.801-12.356-27.801-27.801s12.356-27.801 27.801-27.801h40.981v-65.075h-23.27c-50.248 0-91.228 40.983-91.228 91.228v236.823c0 50.248 40.981 91.228 91.228 91.228h650.747c50.25 0 91.228-40.981 91.228-91.228v-236.823zM716.233 37.215c0-9.679-8.031-17.708-17.71-17.708h-455.317c-9.679 0-17.71 8.029-17.71 17.708v307.046h490.737v-307.046zM225.496 811.11c0 50.248 40.981 91.228 91.228 91.228h308.075c50.248 0 91.228-40.981 91.228-91.228v-56.837h-490.532v56.837zM797.577 754.273h-25.536v56.837c0 80.932-65.898 146.83-146.83 146.83h-308.281c-80.932 0-146.83-65.898-146.83-146.83v-56.837h-23.27c-80.932 0-146.83-65.898-146.83-146.828v-236.823c0-80.934 65.898-146.832 146.83-146.832h23.064v-186.163c0-40.363 32.949-73.312 73.312-73.312h455.317c40.363 0 73.312 32.949 73.312 73.312v186.163h25.742c80.932 0 146.83 65.898 146.83 146.832v236.823c0 80.929-65.898 146.828-146.83 146.828zM292.836 207.523h353.998c15.445 0 27.801 12.356 27.801 27.801s-12.356 27.801-27.801 27.801h-353.998c-15.445 0-27.801-12.356-27.801-27.801s12.562-27.801 27.801-27.801zM649.099 149.449h-354.204c-15.445 0-27.801-12.356-27.801-27.801s12.356-27.801 27.801-27.801h353.998c15.445 0 27.801 12.356 27.801 27.801s-12.356 27.801-27.595 27.801zM796.96 645.129h-56.426c-15.445 0-27.801-12.356-27.801-27.801s12.356-27.801 27.801-27.801h56.426c15.445 0 27.801 12.356 27.801 27.801s-12.356 27.801-27.801 27.801z" />
<glyph unicode="&#xe910;" glyph-name="class" horiz-adv-x="1396" d="M1112.513 26.039v386.861h192.286v-386.861h-192.286zM1043.839 424.346v-148.793h-714.206v148.793c0 32.048-25.18 57.228-57.228 57.228h-86.987v370.838c0 22.891 18.313 38.915 38.915 38.915h911.070c22.891 0 38.915-18.313 38.915-38.915v-370.838h-73.252c-29.759 0-57.228-25.18-57.228-57.228zM1043.839 26.039h-714.206v180.841h716.495v-180.841h-2.289zM68.674 26.039v386.861h192.286v-386.861h-192.286zM1316.244 481.574h-73.252v370.838c0 59.517-48.072 107.589-107.589 107.589h-911.070c-59.517 0-107.589-48.072-107.589-107.589v-370.838h-59.517c-32.048 0-57.228-25.18-57.228-57.228v-432.644c0-18.313 16.024-34.337 34.337-34.337h1307.088c18.313 0 34.337 16.024 34.337 34.337v432.644c-2.289 32.048-27.469 57.228-59.517 57.228z" />
<glyph unicode="&#xe911;" glyph-name="control" horiz-adv-x="747" d="M196.927 731.723c4.963-4.963 11.166-7.444 18.61-7.444s13.647 2.481 18.61 7.444c9.925 9.925 9.925 26.053 0 37.219l-98.010 98.010c-9.925 9.925-27.294 9.925-37.219 0s-9.925-26.053 0-37.219l98.010-98.010zM46.81 611.382h138.951c14.888 0 26.053 11.166 26.053 26.053s-11.166 26.053-26.053 26.053h-138.951c-14.888 0-26.053-11.166-26.053-26.053s11.166-26.053 26.053-26.053zM437.61 740.408c6.203 0 13.647 2.481 18.61 7.444l98.010 98.010c9.937 9.925 9.937 26.053 0 37.219-9.925 9.925-27.282 9.925-37.219 0l-98.010-98.010c-9.913-9.925-9.913-26.053 0-37.219 4.963-4.963 12.406-7.444 18.61-7.444zM461.182 656.045c0-14.888 11.166-26.053 26.053-26.053h138.963c14.875 0 26.041 11.166 26.041 26.053s-11.166 26.053-26.041 26.053h-138.963c-14.888 0-26.053-12.406-26.053-26.053zM325.953 768.942c14.888 0 26.053 11.166 26.053 26.053v138.951c0 14.888-11.166 26.053-26.053 26.053s-26.053-11.166-26.053-26.053v-138.951c0-13.647 11.166-26.053 26.053-26.053zM224.221 353.33l28.535-49.625v333.73c0 43.422 35.978 79.401 79.401 79.401s79.401-35.978 79.401-79.401v-96.769c8.684 3.722 17.369 4.963 27.294 4.963 31.016 0 58.31-17.369 70.716-43.422 11.178 6.203 23.584 8.684 35.991 8.684 34.725 0 65.741-23.572 75.666-54.588 9.925 3.722 21.091 6.203 32.256 6.203 38.46 0 68.235-28.535 79.401-74.438v-3.722c1.241-11.166 16.128-270.458-34.738-397.003-3.709-9.925-13.647-16.128-23.572-16.128-3.722 0-6.203 1.241-9.925 2.481-13.635 4.963-19.838 21.091-14.888 33.497 44.675 109.176 32.269 346.137 31.016 370.949-2.481 11.166-9.925 31.016-28.535 31.016-14.888 0-27.294-12.406-27.294-27.294v-52.107c0-14.888-11.153-26.053-26.053-26.053-14.888 0-26.053 11.166-26.053 26.053v100.491c0 14.888-12.406 27.294-27.282 27.294-14.9 0-27.306-12.406-27.306-27.294v-100.491c0-14.888-11.166-26.053-26.053-26.053-14.875 0-26.053 11.166-26.053 26.053v135.229c0 14.888-12.406 27.294-27.294 27.294s-27.294-12.406-27.294-27.294v-126.545c0-14.888-11.166-26.053-26.053-26.053s-26.053 11.166-26.053 26.053v298.993c0 14.888-12.406 27.294-27.294 27.294s-27.294-12.406-27.294-27.294v-430.5c0-12.406-7.444-22.331-19.85-24.813-11.166-2.481-23.572 2.481-29.775 12.406l-78.16 135.229c-3.722 7.444-8.684 11.166-16.128 13.647-6.203 1.241-12.406 0-17.369-2.481-8.684-4.963-8.684-24.813-2.481-45.903 3.722-8.684 75.679-210.908 155.079-290.308 9.925-9.925 9.925-26.053 0-37.219-4.963-4.963-11.166-7.444-18.61-7.444-6.203 0-13.647 2.481-18.61 7.444-89.326 89.326-163.764 301.474-167.486 310.158-14.888 45.903-4.963 86.844 23.572 106.695 17.369 11.166 38.46 14.888 58.31 9.925 22.331-8.684 39.7-21.091 50.866-40.941z" />
<glyph unicode="&#xe912;" glyph-name="locate-dealer" horiz-adv-x="1058" d="M529.547-48.725c-15.667 0-28.945 13.244-28.945 28.945v253.542c0 15.701 13.278 28.945 28.945 28.945 15.428 0 28.945-12.766 28.945-27.307v-97.109l7.646 0.922c82.603 10.138 156.911 50.825 209.271 114.62 5.7 7.134 13.722 11.025 22.596 11.025 7.031 0 14.063-2.526 19.831-7.168 6.349-5.052 10.206-12.186 10.889-20.036 0.683-7.885-1.809-15.804-7.066-22.391-65.126-77.824-156.433-126.020-256.99-135.612l-6.178-0.58v-98.85c0-15.701-13.278-28.945-28.945-28.945zM305.247 156.075c-6.144 0-12.937 2.458-18.671 6.758-77.653 65.024-125.884 156.331-135.441 256.887l-0.614 6.178h-97.212c-15.667 0-28.945 13.244-28.945 28.911 0 15.701 13.278 28.945 28.945 28.945h255.181c15.701 0 28.911-13.244 28.911-28.945 0-15.94-15.155-28.911-33.792-28.911h-95.471l0.922-7.646c10.138-82.603 50.825-156.911 114.62-209.271 13.175-10.547 14.814-28.774 3.857-42.462-4.915-6.144-14.063-10.445-22.289-10.445zM529.547 419.393c-20.548 0-35.43 14.916-35.43 35.43 0 19.866 15.565 35.43 35.43 35.43s35.43-15.565 35.43-35.43c0-19.866-15.565-35.43-35.43-35.43zM752.23 427.517c-15.667 0-28.945 13.244-28.945 28.945 0 15.667 13.278 28.911 28.945 28.911h95.471l-0.922 7.68c-10.274 83.729-51.575 157.525-116.395 207.735-12.151 10.82-13.926 29.559-3.721 42.359 5.837 6.519 14.507 10.445 23.552 10.445 6.929 0 13.449-2.287 18.876-6.656 78.643-62.908 127.42-153.6 137.25-255.386l0.614-6.178h98.816c15.701 0 28.945-13.244 28.945-28.911 0-15.701-13.244-28.945-28.945-28.945h-253.542zM261.365 646.946c-6.144 0-12.937 2.458-18.671 6.758-6.178 4.949-10.001 12.049-10.684 19.934-0.717 7.851 1.809 15.804 7.066 22.357 62.464 76.527 155.546 125.952 255.351 135.646l6.178 0.58v98.85c-0.614 7.543 1.741 14.302 6.588 19.558 5.461 5.939 13.619 9.387 22.357 9.387 15.667 0 28.945-13.278 28.945-28.945v-253.577c0-15.667-13.278-28.911-28.945-28.911-15.701 0-28.945 13.244-28.945 28.911v95.505l-7.646-0.956c-82.603-10.103-156.911-50.79-209.271-114.586-4.949-6.212-14.131-10.513-22.323-10.513z" />
<glyph unicode="&#xe913;" glyph-name="Share" horiz-adv-x="931" d="M840.781 138.565c2.871 45.233-41.947 88.335-87.932 88.335-46.231 0.011-88.616-43.27-88.627-88.268-0.011-45.828 42.149-89.121 89.053-88.907 45.749 0.202 90.253 42.743 87.505 88.84zM176.202 548.972c-46.77 2.972-88.672-42.968-88.694-87.539-0.022-45.962 41.969-88.661 87.988-88.964 47.207-0.314 89.132 43.136 89.177 88.75 0.056 45.076-42.25 90.691-88.47 87.752zM752.625 871.74c-46.489 2.714-88.459-42.878-88.392-87.887 0.079-45.121 41.453-88.459 88.313-88.616 47.196-0.157 88.997 43.383 88.874 89.031-0.146 44.527-41.868 90.377-88.795 87.472zM614.267 674.712c-3.253-1.862-5.821-3.219-8.288-4.733-83.928-51.974-167.81-104.015-251.839-155.81-6.090-3.757-8.378-6.83-6.528-14.547 5.866-24.349 6.023-49.013 0.841-73.632-0.965-4.587-2.624-8.838 3.331-12.528 87.775-54.385 175.392-109.051 263.885-164.176 2.176 2.355 4.284 4.711 6.46 6.976 50.157 51.974 110.711 70.738 180.002 50.516 68.898-20.11 110.801-68.192 123.934-138.649 17.822-95.525-47.947-186.933-144.403-203.51-94.942-16.319-187.382 49.562-202.198 144.986-2.501 16.207-1.38 33.053-0.953 49.585 0.157 5.989-1.009 9.354-6.191 12.573-87.449 54.273-174.876 108.636-262.045 163.403-7.245 4.554-10.061 0.931-14.592-3.051-51.772-45.502-111.171-59.488-176.368-37.203-65.186 22.308-104.441 69.695-116.61 137.393-13.257 73.71 23.161 146.927 88.571 182.997 65.029 35.857 145.199 27.142 201.222-22.656 7.38-6.55 11.844-6.225 19.639-1.357 85.958 53.645 172.117 106.954 258.411 160.060 6.572 4.049 8.322 7.873 7.335 15.567-8.591 65.893 27.681 135.576 87.819 169.818 61.81 35.218 139.513 30.372 194.784-13.997 54.98-44.145 77.961-102.366 64.681-171.657-13.594-70.917-57.301-118.068-126.951-136.821-68.898-18.551-128.611 1.189-177.478 53.275-1.996 2.12-3.903 4.318-6.471 7.178z" />
<glyph unicode="&#xe914;" glyph-name="smart-safety" horiz-adv-x="1054" d="M101.503 610.647c-6.415 0-12.469 2.5-16.986 7.048-4.578 4.548-7.078 10.601-7.078 17.047 0 6.415 2.5 12.469 7.078 17.016l199.74 199.831h-62.283c-13.282 0-24.094 10.812-24.094 24.094s10.812 24.094 24.094 24.094h120.471c13.282 0 24.094-10.812 24.094-24.094v-120.471c0-13.282-10.812-24.094-24.094-24.094s-24.094 10.812-24.094 24.094v62.283l-199.831-199.8c-4.518-4.548-10.571-7.048-17.016-7.048zM583.386 490.177c-6.445 0-12.469 2.5-17.016 7.048-9.397 9.397-9.397 24.696 0 34.093l30.118 30.088c4.548 4.578 10.571 7.078 17.016 7.078s12.499-2.5 17.016-7.048c4.578-4.578 7.078-10.632 7.078-17.047 0-6.445-2.5-12.499-7.078-17.047l-30.118-30.118c-4.518-4.548-10.571-7.048-17.016-7.048zM587.331 755.212l236.996-236.996 116.555 116.525-237.026 236.966-116.525-116.495zM466.891 514.271l116.495-116.525 146.673 146.643-116.555 116.495-146.613-146.613zM583.386 339.589c-6.445 0-12.469 2.5-17.016 7.048l-150.588 150.588c-9.397 9.397-9.397 24.696 0 34.093l163.689 163.659-43.219 43.189c-9.397 9.397-9.397 24.696 0 34.093l150.588 150.558c4.548 4.578 10.571 7.078 17.016 7.078s12.499-2.5 17.016-7.048l43.219-43.219 73.336 73.306c4.548 4.578 10.571 7.078 17.016 7.078s12.499-2.5 17.016-7.048c4.578-4.578 7.078-10.632 7.078-17.047 0-6.445-2.5-12.499-7.078-17.047l-73.306-73.306 116.525-116.525 73.336 73.306c4.548 4.578 10.571 7.078 17.016 7.078s12.499-2.5 17.016-7.048c4.578-4.578 7.078-10.632 7.078-17.047 0-6.445-2.5-12.499-7.078-17.047l-73.306-73.306 43.189-43.219c4.578-4.548 7.078-10.601 7.078-17.016 0-6.445-2.5-12.499-7.078-17.047l-150.588-150.588c-4.518-4.548-10.571-7.048-17.016-7.048s-12.469 2.5-17.016 7.048l-43.219 43.189-163.689-163.659c-4.518-4.548-10.571-7.048-17.016-7.048zM312.327 158.883c-6.415 0-12.469 2.5-16.986 7.048l-60.235 60.235c-4.578 4.548-7.078 10.601-7.078 17.047 0 6.415 2.5 12.469 7.078 17.016 4.518 4.578 10.571 7.078 16.986 7.078 6.445 0 12.499-2.5 17.016-7.048l60.235-60.265c4.578-4.548 7.078-10.601 7.078-17.016 0-6.445-2.5-12.499-7.078-17.047-4.518-4.548-10.571-7.048-17.016-7.048zM703.856 8.294c-13.282 0-24.094 10.812-24.094 24.094v120.471c0 13.282 10.812 24.094 24.094 24.094s24.094-10.812 24.094-24.094v-62.313l199.831 199.8c4.548 4.578 10.571 7.078 17.016 7.078s12.499-2.5 17.016-7.048c4.578-4.578 7.078-10.632 7.078-17.047 0-6.445-2.5-12.499-7.078-17.047l-199.77-199.8h62.283c13.282 0 24.094-10.812 24.094-24.094s-10.812-24.094-24.094-24.094h-120.471zM105.479 273.33l236.966-236.996 116.525 116.525-236.996 236.966-116.495-116.495zM191.856-51.941c-6.415 0-12.469 2.5-16.986 7.048-4.578 4.548-7.078 10.601-7.078 17.047 0 6.415 2.5 12.469 7.078 17.016l73.276 73.336-116.525 116.495-73.336-73.306c-4.518-4.548-10.571-7.048-17.016-7.048-6.415 0-12.469 2.5-16.986 7.048-4.578 4.548-7.078 10.601-7.078 17.047 0 6.415 2.5 12.469 7.078 17.016l73.276 73.336-43.159 43.189c-4.578 4.548-7.078 10.601-7.078 17.047 0 6.415 2.5 12.469 7.078 17.016l150.588 150.588c4.518 4.578 10.571 7.078 16.986 7.078 6.445 0 12.499-2.5 17.016-7.048l271.059-271.089c4.578-4.548 7.078-10.601 7.078-17.016 0-6.445-2.5-12.499-7.078-17.047l-150.588-150.588c-4.518-4.548-10.571-7.048-17.016-7.048s-12.469 2.5-17.016 7.048l-43.219 43.189-73.336-73.306c-4.518-4.548-10.571-7.048-17.016-7.048z" />
<glyph unicode="&#xe915;" glyph-name="speed" horiz-adv-x="1443" d="M711.482 960c381.308 0 691.531-310.223 691.531-691.531 0-107.952-24.199-211.369-71.92-307.387-4.751-9.573-13.172-16.814-23.35-20.082-10.178-3.253-21.233-2.289-30.677 2.735l-147.525 78.312c-19.333 10.25-26.675 34.233-16.425 53.551 10.264 19.319 34.247 26.675 53.551 16.411l110.428-58.618c31.022 74.324 46.713 153.226 46.713 235.079 0 106.498-27.38 206.705-75.389 294.028l-29.712-23.018c-7.212-5.585-15.763-8.292-24.228-8.292-11.833 0-23.537 5.283-31.339 15.346-13.402 17.289-10.25 42.164 7.054 55.567l35.413 27.438c-103.964 141.896-267.44 237.454-453.372 249.748v-33.959c0-21.867-17.735-39.602-39.602-39.602s-39.602 17.735-39.602 39.602v34.146c-188.207-11.732-353.554-108.83-457.835-252.972l31.483-24.386c17.289-13.388 20.442-38.278 7.054-55.567-7.802-10.077-19.506-15.346-31.339-15.346-8.465 0-17.001 2.706-24.228 8.292l-25.451 19.722c-46.886-86.546-73.547-185.587-73.547-290.732 0-82.313 15.864-161.618 47.203-236.288l122.923 60.389c19.621 9.645 43.359 1.526 53.004-18.081 9.645-19.635 1.54-43.359-18.095-53.019l-159.416-78.312c-5.614-2.764-11.574-4.060-17.433-4.060-14.568 0-28.575 8.061-35.499 21.996-47.721 96.004-71.92 199.421-71.92 307.387 0.014 381.294 310.237 691.502 691.545 691.502zM661.056 360.196l315.405 400.281c7.227 9.17 20.269 11.329 30.058 5.010 9.803-6.334 13.186-19.088 7.802-29.439l-234.2-450.781c-0.259-0.518-0.547-1.022-0.864-1.512-14.871-23.94-36.709-36.665-60.332-36.665-11.43 0-23.278 2.98-34.967 9.112-17.807 9.343-29.755 23.753-34.636 41.675-5.254 19.333-1.497 41.286 10.293 60.26 0.446 0.72 0.921 1.411 1.44 2.059z" />
<glyph unicode="&#xe916;" glyph-name="trade-in-s" horiz-adv-x="860" d="M156.623 458.24h-63.488v172.715c0 94.891 77.141 172.715 172.715 172.715h548.181v-63.488h-548.181c-60.075 0-109.227-49.152-109.227-109.227v-172.715zM667.26 591.36l-45.063 44.373 135.857 136.533-135.857 135.851 45.063 45.056 180.907-180.907zM617.421 89.6h-548.181v63.488h548.181c60.081 0 109.227 49.152 109.227 109.227v172.715h63.495v-172.715c0-95.573-77.148-172.715-172.721-172.715zM216.014-59.22l-180.907 180.224 180.907 180.907 44.373-44.373-135.851-136.533 135.851-135.851z" />
<glyph unicode="&#xe917;" glyph-name="zoom" d="M466.99 674.18v-182.295h-181.169v-86.646h182.295v-181.169h86.646v181.169h181.169v86.646h-181.169v182.295h-87.771zM1021.751-17.864v300.448h-86.646v-257.688h-243.059v-86.646h285.82c23.631 0 43.886 20.255 43.886 43.886zM0.001-17.864c0-23.631 19.13-42.76 42.76-42.76h295.947v86.646h-252.062v256.563h-86.646v-300.448zM1021.751 916.114c0 23.631-19.13 42.76-42.76 42.76h-286.945v-86.646h243.059v-237.433h86.646v281.319zM43.887 960h295.947v-86.646h-253.187v-237.433h-86.646v280.193c0 23.631 20.255 43.886 43.886 43.886z" />
<glyph unicode="&#xe918;" glyph-name="cc" horiz-adv-x="1502" d="M293.843 439.353c-18.284 0-32.649-14.318-32.649-32.54s14.366-32.54 32.649-32.54h522.388c18.284 0 32.649 14.318 32.649 32.54s-14.366 32.54-32.649 32.54h-522.388zM293.843 569.515c-18.284 0-32.649-14.318-32.649-32.54s14.366-32.54 32.649-32.54h522.388c18.284 0 32.649 14.318 32.649 32.54s-14.366 32.54-32.649 32.54h-522.388zM437.5 894.919l120.136-119.736c6.53-6.508 14.379-9.124 23.521-9.124s16.991 2.616 23.521 9.124c13.060 13.016 13.060 33.842 0 45.557l-75.759 74.179h78.358l121.468-121.063c6.53-6.508 14.34-9.098 23.494-9.098 9.142 0 16.978 2.59 23.507 9.098 13.060 13.016 13.060 33.842 0 45.557l-77.052 75.507h78.358l121.468-121.063c6.53-6.508 14.34-9.098 23.494-9.098 9.142 0 16.978 2.59 23.507 9.098 13.060 13.016 13.060 33.842 0 45.557l-77.052 75.507h65.299l121.468-121.063c6.53-6.508 14.34-9.098 23.494-9.098h97.948v-357.945c0-18.223 14.353-32.54 32.649-32.54 18.284 0 32.649 14.318 32.649 32.54v162.702h63.993v-162.702c0-18.223 14.366-32.54 32.649-32.54s32.649 14.318 32.649 32.54v292.864h65.299v-520.647h-65.299v97.621c0 18.223-14.366 32.54-32.649 32.54h-130.597c-9.142 0-16.991-3.892-23.521-9.098l-250.733-251.225h-496.269l-65.299 65.081h444.030c18.284 0 32.649 14.318 32.649 32.54s-14.366 32.54-32.649 32.54h-522.388c-53.545 0-97.948 44.255-97.948 97.621v390.485c0 53.366 44.403 97.621 97.948 97.621h130.597c18.284 0 32.649 14.318 32.649 32.54s-14.366 32.54-32.649 32.54h-52.239l65.299 65.081zM424.441 960c-9.142 0-16.991-3.892-23.521-9.098l-121.442-121.063c-83.582-6.508-148.881-76.795-148.881-162.702v-162.702h-65.299v292.864c0 18.223-14.366 32.54-32.649 32.54s-32.649-14.318-32.649-32.54v-650.809c0-18.223 14.366-32.54 32.649-32.54s32.649 14.318 32.649 32.54v292.864h65.299v-162.702c0-84.605 65.299-154.893 148.881-162.702l121.442-121.063c6.53-6.508 14.379-9.098 23.521-9.098h522.388c9.142 0 16.991 3.892 23.521 9.098l250.733 251.225h84.888v-97.621c0-18.223 14.366-32.54 32.649-32.54h130.597c18.284 0 32.649 14.318 32.649 32.54v585.728c0 18.223-14.366 32.54-32.649 32.54h-130.597c-18.284 0-32.649-14.318-32.649-32.54v-97.621h-65.299v162.702c0 18.223-14.366 32.54-32.649 32.54h-117.537l-121.468 121.063c-6.53 6.508-14.34 9.098-23.494 9.098h-521.082z" />
<glyph unicode="&#xe919;" glyph-name="compare" horiz-adv-x="866" d="M417.477 960h-63.015c-15.754 0-23.631-7.877-23.631-15.754v-78.769h-212.677c-47.262 0-78.769-39.385-78.769-78.769v-653.785c0-47.262 39.385-78.769 78.769-78.769h212.677v-78.769c0-7.877 7.877-15.754 15.754-15.754h63.015c7.877 0 15.754 7.877 15.754 15.754v968.862c7.877 7.877 0 15.754-7.877 15.754zM330.831 140.8h-189.046v622.277h196.923v-622.277zM779.815 865.477h-196.923c-7.877 0-15.754-7.877-15.754-15.754v-63.015c0-7.877 7.877-15.754 15.754-15.754h181.169v-622.277h-181.169c-7.877 0-15.754-7.877-15.754-15.754v-63.015c0-7.877 7.877-15.754 15.754-15.754h196.923c47.262 0 78.769 39.385 78.769 78.769v645.908c0 47.262-31.508 86.646-78.769 86.646z" />
<glyph unicode="&#xe91a;" glyph-name="compare_Active" horiz-adv-x="866" d="M417.477 960h-63.015c-15.754 0-23.631-7.877-23.631-15.754v-78.769h-212.677c-47.262 0-78.769-39.385-78.769-78.769v-653.785c0-47.262 39.385-78.769 78.769-78.769h212.677v-78.769c0-7.877 7.877-15.754 15.754-15.754h63.015c7.877 0 15.754 7.877 15.754 15.754v968.862c7.877 7.877 0 15.754-7.877 15.754zM779.815 865.477h-196.923c-7.877 0-15.754-7.877-15.754-15.754v-63.015c0-7.877 7.877-15.754 15.754-15.754h181.169v-622.277h-181.169c-7.877 0-15.754-7.877-15.754-15.754v-63.015c0-7.877 7.877-15.754 15.754-15.754h196.923c47.262 0 78.769 39.385 78.769 78.769v645.908c0 47.262-31.508 86.646-78.769 86.646z" />
<glyph unicode="&#xe91b;" glyph-name="whatsapp" d="M873.024 811.2c-91.263 91.91-217.689 148.802-357.402 148.802-0.553 0-1.106-0.001-1.659-0.003h0.085c-279.616 0-507.2-227.584-507.2-507.392 0-89.408 23.424-176.832 67.776-253.632l-72-262.976 268.992 70.592c70.002-38.857 153.503-61.756 242.347-61.824h0.213c279.616 0 507.392 227.584 507.392 507.392 0.001 0.382 0.002 0.834 0.002 1.286 0 139.769-56.807 266.269-148.592 357.673l-0.017 0.017zM514.176 30.4c-0.022 0-0.048 0-0.074 0-79.213 0-153.32 21.861-216.617 59.878l1.907-1.062-15.424 9.216-159.616-41.792 42.624 155.584-9.984 16c-40.513 63.286-64.577 140.484-64.577 223.302 0 0.38 0.001 0.761 0.002 1.141v-0.060c0.291 232.917 189.083 421.642 421.998 421.824h0.018c112.576 0 218.624-44.032 298.176-123.584 76.228-75.96 123.394-181.040 123.394-297.137 0-0.433-0.001-0.866-0.002-1.298v0.068c-0.192-232.768-189.376-422.016-421.824-422.016zM745.408 346.368c-12.608 6.4-75.008 36.992-86.592 41.216s-20.032 6.4-28.608-6.4c-8.384-12.608-32.768-41.216-40.192-49.792-7.424-8.384-14.784-9.6-27.392-3.2s-53.632 19.776-102.016 62.976c-37.632 33.6-63.168 75.2-70.592 87.808s-0.832 19.584 5.632 25.792c5.824 5.632 12.608 14.784 19.008 22.208s8.384 12.608 12.608 21.184c4.224 8.384 2.176 15.808-1.024 22.208s-28.608 68.8-38.976 94.208c-10.176 24.832-20.8 21.376-28.608 21.824-7.424 0.384-15.808 0.384-24.192 0.384s-22.208-3.2-33.792-15.808c-11.584-12.608-44.416-43.392-44.416-105.792s45.376-122.624 51.776-131.2c6.4-8.384 89.408-136.576 216.576-191.424 30.208-12.992 53.824-20.8 72.192-26.816 30.4-9.6 57.984-8.192 79.808-4.992 24.384 3.584 75.008 30.592 85.632 60.224s10.624 54.976 7.424 60.224c-3.008 5.632-11.392 8.768-24.192 15.232z" />
<glyph unicode="&#xe91c;" glyph-name="compare_Active1" horiz-adv-x="866" d="M779.815 865.477h-196.923c-7.877 0-15.754-7.877-15.754-15.754v-63.015c0-7.877 7.877-15.754 15.754-15.754h181.169v-622.277h-181.169c-7.877 0-15.754-7.877-15.754-15.754v-63.015c0-7.877 7.877-15.754 15.754-15.754h196.923c47.262 0 78.769 39.385 78.769 78.769v645.908c0 47.262-31.508 86.646-78.769 86.646zM417.477 960h-63.015c-15.754 0-23.631-7.877-23.631-15.754v-78.769h-212.677c-47.262 0-78.769-39.385-78.769-78.769v-653.785c0-47.262 39.385-78.769 78.769-78.769h212.677v-78.769c0-7.877 7.877-15.754 15.754-15.754h63.015c7.877 0 15.754 7.877 15.754 15.754v968.862c7.877 7.877 0 15.754-7.877 15.754z" />
<glyph unicode="&#xe91d;" glyph-name="petrol" d="M374.784 382.464c-2.048 2.048-8.192 2.048-12.288 0v0l-49.152-55.296c-30.72-34.816-30.72-90.112 0-126.976 28.672-34.816 79.872-34.816 108.544-2.048l2.048 2.048c30.72 34.816 30.72 90.112 0 126.976l-49.152 55.296zM198.656 783.872v-262.144h342.016v262.144c0 0-342.016 0-342.016 0zM485.376 574.976h-233.472v157.696h233.472v-157.696zM874.496 660.992l-135.168 155.648-43.008-36.864 94.208-108.544c-55.296-2.048-98.304-53.248-94.208-108.544 2.048-55.296 53.248-100.352 108.544-94.208 16.384 0 30.72 6.144 47.104 16.384v-339.968c0-26.624-18.432-47.104-45.056-49.152-26.624 0-47.104 18.432-49.152 45.056 0 2.048 0 2.048 0 6.144v204.8c0 49.152-43.008 92.16-92.16 92.16h-45.056v385.024c0 16.384-12.288 26.624-26.624 26.624h-450.56c-12.288 0-26.624-12.288-26.624-26.624v-755.712c0-16.384 12.288-26.624 26.624-26.624h450.56c16.384 0 26.624 12.288 26.624 26.624v313.344h45.056c20.48 0 36.864-16.384 36.864-36.864v0-204.8c-2.048-55.296 43.008-102.4 100.352-104.448 55.296-2.048 102.4 43.008 104.448 100.352 0 2.048 0 6.144 0 6.144v430.080c0 30.72-10.24 61.44-32.768 83.968zM798.72 521.728v0c-26.624 0-47.104 20.48-47.104 47.104s20.48 47.104 47.104 47.104 47.104-20.48 47.104-47.104-20.48-47.104-47.104-47.104zM567.296 99.84h-395.264v700.416h395.264v-700.416z" />
<glyph unicode="&#xe91e;" glyph-name="Bookmark-stroke" horiz-adv-x="1078" d="M824.589-58.611c-16.168 0-26.947 5.389-43.116 10.779l-242.526 129.347-242.526-129.347c-37.726-21.558-75.453-10.779-91.621 16.168-10.779 10.779-16.168 26.947-16.168 43.116 0 5.389 0 10.779 0 16.168l48.505 269.474-194.021 188.632c-21.558 26.947-32.337 43.116-32.337 64.674 0 10.779 5.389 59.284 64.674 64.674l269.474 37.726 123.958 247.916c21.558 37.726 53.895 48.505 70.063 48.505s48.505-5.389 64.674-48.505l118.568-242.526 269.474-37.726c64.674-10.779 64.674-53.895 64.674-64.674 0-21.558-10.779-37.726-26.947-53.895l-194.021-194.021 48.505-269.474c0-5.389 0-10.779 0-16.168 0-16.168-5.389-32.337-16.168-43.116-5.389-26.947-26.947-37.726-43.116-37.726zM538.947 173.137l264.084-140.126-48.505 296.421 215.579 210.189-301.811 43.116-129.347 264.084-134.737-264.084-296.421-43.116 215.579-210.189-48.505-296.421 264.084 140.126z" />
<glyph unicode="&#xe91f;" glyph-name="Error" d="M512 768c-176.64 0-320-143.36-320-320s143.36-320 320-320 320 143.36 320 320-143.36 320-320 320zM645.12 314.88c-5.12-5.12-10.24-5.12-15.36-5.12s-10.24 2.56-15.36 5.12l-102.4 102.4-102.4-102.4c-5.12-5.12-10.24-5.12-15.36-5.12s-10.24 2.56-15.36 5.12c-7.68 7.68-7.68 20.48 0 30.72l102.4 102.4-102.4 102.4c-7.68 7.68-7.68 20.48 0 30.72 7.68 7.68 20.48 7.68 30.72 0l102.4-102.4 102.4 102.4c7.68 7.68 20.48 7.68 30.72 0 7.68-7.68 7.68-20.48 0-30.72l-102.4-102.4 102.4-102.4c7.68-7.68 7.68-20.48 0-30.72z" />
<glyph unicode="&#xe920;" glyph-name="Information2" d="M512 768c-176.64 0-320-143.36-320-320s143.36-320 320-320 320 143.36 320 320-143.36 320-320 320zM550.4 581.12c0-17.92-17.92-33.28-38.4-33.28s-38.4 15.36-38.4 33.28v28.16c0 17.92 17.92 33.28 38.4 33.28s38.4-15.36 38.4-33.28v-28.16zM550.4 314.88c0-17.92-17.92-33.28-38.4-33.28s-38.4 15.36-38.4 33.28v174.080c0 17.92 17.92 33.28 38.4 33.28s38.4-15.36 38.4-33.28v-174.080z" />
<glyph unicode="&#xe921;" glyph-name="filter" horiz-adv-x="1297" d="M1143.488 660.215c-29.187-94.662-117.572-163.519-221.888-163.519-104.371 0-192.707 68.897-221.886 163.519h-597.314c-37.703 0-68.267 30.504-68.267 68.133s30.564 68.133 68.267 68.133h597.312c29.187 94.662 117.572 163.519 221.888 163.519 104.371 0 192.707-68.897 221.886-163.519h51.181c37.703 0 68.267-30.504 68.267-68.133s-30.564-68.133-68.267-68.133h-51.179zM921.6 823.734c-52.675 0-95.573-42.781-95.573-95.386 0-52.572 42.865-95.386 95.573-95.386 52.675 0 95.573 42.781 95.573 95.386 0 52.572-42.865 95.386-95.573 95.386zM733.888 128.777c-29.187-94.662-117.572-163.519-221.888-163.519-104.371 0-192.707 68.897-221.886 163.519h-187.714c-37.703 0-68.267 30.504-68.267 68.133s30.564 68.133 68.267 68.133h187.712c29.187 94.662 117.572 163.519 221.888 163.519 104.371 0 192.707-68.897 221.886-163.519h460.781c37.703 0 68.267-30.504 68.267-68.133s-30.564-68.133-68.267-68.133h-460.779zM512 292.296c-52.675 0-95.573-42.781-95.573-95.386 0-52.572 42.865-95.386 95.573-95.386 52.675 0 95.573 42.781 95.573 95.386 0 52.572-42.865 95.386-95.573 95.386z" />
<glyph unicode="&#xe922;" glyph-name="search-close" d="M914.267-33.036c-20.165 0-40.33 7.719-55.69 23.079l-835.505 835.505c-30.799 30.799-30.799 80.581 0 111.38s80.581 30.799 111.38 0l835.505-835.505c30.799-30.799 30.799-80.581 0-111.38-15.36-15.36-35.525-23.079-55.69-23.079zM78.769-33.036c-20.165 0-40.33 7.719-55.69 23.079-30.799 30.799-30.799 80.581 0 111.38l835.505 835.505c30.799 30.799 80.581 30.799 111.38 0s30.799-80.581 0-111.38l-835.505-835.505c-15.36-15.36-35.525-23.079-55.69-23.079z" />
<glyph unicode="&#xe923;" glyph-name="seats" horiz-adv-x="853" d="M263.79 363.638h320.664c17.727 0.144 33.003 7.494 44.533 19.024h0.144c13.115 13.115 21.762 31.994 24.212 52.891l46.55 412.035c0.288 1.729 0.288 3.603 0.288 5.765 0 15.277-6.918 29.256-17.871 39.921-11.529 11.385-27.238 19.024-44.1 20.897-2.306 0.288-5.044 0.432-7.927 0.432h-412.323c-2.882 0-5.621-0.144-8.071-0.432-16.718-1.874-32.571-9.512-44.1-20.897-10.809-10.665-17.871-24.644-17.871-39.777 0-2.162 0.144-4.179 0.288-5.909l46.694-412.035c2.306-20.897 10.953-39.777 24.212-52.891 11.529-11.529 26.806-18.88 44.677-19.024zM584.31 318.24h-346.749c-44.965 0-85.895-18.447-115.583-48.136s-48.136-70.618-48.136-115.583v-72.492c0-24.932 10.232-47.847 26.806-64.421 16.574-16.43 39.344-26.518 64.421-26.518h518.106c24.933 0 47.847 10.088 64.421 26.518 16.43 16.574 26.662 39.488 26.662 64.421v72.492c0 44.965-18.303 85.895-48.136 115.583-29.688 29.688-70.474 48.136-115.439 48.136h-26.374zM302.27 189.11c-12.538 0-22.771 9.944-22.771 22.482s10.232 22.771 22.771 22.771h243.704c12.538 0 22.627-10.232 22.627-22.771s-10.088-22.482-22.627-22.482h-243.704zM241.307 74.968c-12.538 0-22.627 9.944-22.627 22.482s10.088 22.771 22.627 22.771h365.629c12.538 0 22.627-10.232 22.627-22.771s-10.088-22.482-22.627-22.482h-365.629zM302.27 559.351c-12.538 0-22.771 10.088-22.771 22.627s10.232 22.771 22.771 22.771h243.704c12.538 0 22.627-10.232 22.627-22.771s-10.088-22.627-22.627-22.627h-243.704zM271.717 673.492c-12.394 0-22.627 10.232-22.627 22.771s10.232 22.627 22.627 22.627h304.667c12.538 0 22.771-10.088 22.771-22.627s-10.232-22.771-22.771-22.771h-304.667zM217.96 960h412.323c4.035 0 8.359-0.288 12.971-0.721 26.95-3.026 52.315-15.421 70.906-33.724 19.168-18.88 31.418-44.1 31.418-72.203 0-3.171-0.144-6.774-0.721-10.665l-46.55-412.035c-3.171-28.391-14.556-54.621-32.138-74.509 35.309-9.8 67.015-28.68 92.092-53.9 37.903-37.903 61.394-90.218 61.394-147.721v-72.492c0-37.471-15.421-71.627-40.065-96.415-24.788-24.644-59.089-40.065-96.415-40.065h-518.106c-37.615 0-71.771 15.421-96.559 40.065-24.644 24.788-40.065 59.089-40.065 96.415v72.492c0 57.503 23.491 109.818 61.394 147.721 25.221 25.221 56.783 44.1 92.092 53.9-17.582 19.888-28.824 46.118-32.138 74.509l-46.55 412.035c-0.432 3.891-0.576 7.494-0.576 10.809 0 27.959 12.25 53.18 31.418 72.059 18.591 18.159 43.956 30.553 70.906 33.724 4.468 0.432 8.791 0.721 12.971 0.721z" />
<glyph unicode="&#xe924;" glyph-name="speed2" d="M849.164 525.082c-0.23-0.397-0.474-0.896-0.755-1.254l-232.996 102.103c-0.397 0.154-0.806 0.499-1.242 0.755l122.674 279.892c0.192 0.397 0.461 0.806 0.768 1.254l233.252-102.295c0.294-0.154 0.666-0.397 0.947-0.653l-122.648-279.802zM601.064 214.241c-13.849 9.945-29.478 17.203-46.22 22.105l132.479 302.189 46.911-20.595-133.17-303.699zM511.99-12.801c-56.55 0-102.399 45.849-102.399 102.398 0 13.005 2.675 25.356 7.104 36.799 5.901 15.296 15.424 28.646 27.469 39.398 9.459 8.397 20.352 15.052 32.435 19.558 4.275 1.536 8.589 3.034 13.107 4.032 7.194 1.613 14.617 2.611 22.285 2.611 7.68 0 15.104-0.998 22.272-2.598 4.531-0.998 8.845-2.496 13.12-4.045 12.070-4.506 22.976-11.149 32.422-19.545 12.045-10.752 21.593-24.102 27.481-39.398 4.429-11.456 7.104-23.808 7.104-36.812 0-56.549-45.849-102.398-102.399-102.398zM289.772 517.94l46.899 20.595 132.491-302.189c-16.768-4.902-32.384-12.147-46.233-22.105l-133.157 303.699zM175.571 523.841c-0.269 0.346-0.525 0.845-0.755 1.254l-122.648 279.789c0.294 0.256 0.653 0.499 0.96 0.653l233.239 102.295c0.307-0.448 0.576-0.845 0.781-1.254l122.674-279.892c-0.435-0.256-0.845-0.602-1.254-0.755l-232.996-102.091zM992.433 851.975c0 0-187.544 82.2-234.417 102.795-46.899 20.544-67.468-26.355-67.468-26.355s-102.77-234.44-123.352-281.389c-20.531-46.847 26.355-67.455 26.355-67.455s19.277-8.397 46.899-20.505l-128.459-292.973-128.447 292.999c27.622 12.096 46.899 20.505 46.899 20.505s46.873 20.595 26.368 67.455c-20.582 46.949-123.365 281.389-123.365 281.389s-20.557 46.898-67.468 26.355c-46.873-20.595-234.417-102.795-234.417-102.795s-46.899-20.505-26.355-67.493c20.544-46.796 123.352-281.3 123.352-281.3s20.582-46.898 67.468-26.303l46.86 20.505 141.464-322.592c-16.358-24.422-25.958-53.72-25.958-85.221 0-84.696 68.902-153.597 153.598-153.597s153.598 68.901 153.598 153.597c0 31.5-9.6 60.799-25.92 85.195l141.464 322.592 46.86-20.505c46.873-20.595 67.455 26.303 67.455 26.303s102.796 234.491 123.352 281.3c20.531 47.001-26.368 67.493-26.368 67.493zM119.546 778.735l20.557-46.847 140.658 61.695-20.544 46.796-140.67-61.644zM743.22 793.582l140.658-61.695 20.544 46.847-140.67 61.644-20.531-46.796z" />
<glyph unicode="&#xe925;" glyph-name="wishlist-copy" horiz-adv-x="1195" d="M556.416-45.781c-15.445 0-29.781 6.229-40.363 17.408l-428.629 450.987c-116.565 122.624-116.565 322.048 0 444.501 57.088 59.904 133.376 92.928 214.869 92.928 80.64 0 159.232-33.877 215.467-92.928l38.912-41.131 38.912 41.131c56.917 59.648 133.291 92.501 215.125 92.501 81.92 0 158.293-32.853 215.125-92.501 116.992-122.709 116.992-322.389 0.085-445.099l-430.507-451.669c-10.923-10.581-24.661-16.128-38.997-16.128z" />
<glyph unicode="&#xe926;" glyph-name="wishlist" horiz-adv-x="1195" d="M302.293 849.877c-49.579 0-97.195-21.333-134.144-60.245-75.947-79.787-75.947-209.664 0-289.621l388.523-408.832 388.523 408.235c76.203 80.043 76.203 210.176 0 290.219-36.864 38.741-84.651 60.075-134.485 60.075-49.749 0-97.536-21.333-134.4-60.075l-79.019-83.285c-11.947-11.52-25.685-17.408-40.277-17.408-15.445 0-29.781 6.229-40.363 17.493l-79.531 83.2c-37.035 38.912-84.992 60.245-134.827 60.245zM556.416-45.781c-15.445 0-29.781 6.229-40.363 17.408l-428.629 450.987c-116.565 122.624-116.565 322.048 0 444.501 57.088 59.904 133.376 92.928 214.869 92.928 80.64 0 159.232-33.877 215.467-92.928l38.912-41.131 38.912 41.131c56.917 59.648 133.291 92.501 215.125 92.501 81.92 0 158.293-32.853 215.125-92.501 116.992-122.709 116.992-322.389 0.085-445.099l-430.507-451.669c-10.923-10.581-24.661-16.128-38.997-16.128z" />
<glyph unicode="&#xe927;" glyph-name="Google_plus" horiz-adv-x="1654" d="M515.308-58.77c-289.004 0-515.308 223.783-515.308 509.479 0 285.617 226.304 509.322 515.308 509.322 139.737 0 257.497-40.645 341.15-117.602l-137.216-137.216c-51.909 48.207-122.171 73.57-203.934 73.57-178.018 0-334.139-153.285-334.139-328.074 0-174.946 156.121-328.31 334.139-328.31 134.144 0 240.482 74.594 284.357 199.601l18.511 52.46h-298.299v181.169h488.369c4.647-30.72 7.483-69.159 7.483-104.921 0-35.604-2.678-70.656-7.719-103.975-38.124-250.092-226.855-405.504-492.702-405.504zM1357.462 258.922v173.292h-173.292v123.431h173.292v173.292h123.51v-173.135h173.214v-123.589h-173.214v-173.292z" />
<glyph unicode="&#xe928;" glyph-name="Information" d="M512 18.874c-237.268 0-429.126 191.858-429.126 429.126s191.858 427.991 429.126 427.991c237.268 0 429.126-191.858 429.126-427.991s-191.858-429.126-429.126-429.126zM512 960c-282.678 0-512-229.322-512-512s229.322-512 512-512c282.678 0 512 229.322 512 512s-229.322 512-512 512zM512 581.96c-28.381 0-51.086-22.705-51.086-51.086v-295.166c0-28.381 22.705-51.086 51.086-51.086s51.086 22.705 51.086 51.086v295.166c0 28.381-22.705 51.086-51.086 51.086zM512 710.244c-28.381 0-52.222-22.705-52.222-52.222 0-28.381 22.705-52.222 52.222-52.222s52.222 22.705 52.222 52.222c0 28.381-23.84 52.222-52.222 52.222z" />
<glyph unicode="&#xe929;" glyph-name="Tick" horiz-adv-x="1152" d="M149.274 470.769c-35.712 33.536-91.904 31.744-125.312-3.968-33.408-35.84-31.744-91.904 4.096-125.312l354.432-332.288c38.016-35.712 98.56-30.976 130.56 10.24l620.16 797.568c30.208 38.656 23.168 94.208-15.488 124.416-38.528 29.952-94.208 22.912-124.288-15.616l-560.64-720.896-283.52 265.856z" />
<glyph unicode="&#xe92a;" glyph-name="All-types" horiz-adv-x="1593" d="M290.909 960h-116.364c-48 0-91.636-19.607-123.287-51.258s-51.258-75.287-51.258-123.287v-116.364c0-48 19.607-91.636 51.258-123.287s75.287-51.258 123.287-51.258h116.364c48 0 91.636 19.607 123.287 51.258s51.258 75.287 51.258 123.287v116.364c0 48-19.607 91.636-51.258 123.287s-75.287 51.258-123.287 51.258zM849.455 960h-116.364c-48 0-91.636-19.607-123.287-51.258s-51.258-75.287-51.258-123.287v-116.364c0-48 19.607-91.636 51.258-123.287s75.287-51.258 123.287-51.258h116.364c48 0 91.636 19.607 123.287 51.258s51.258 75.287 51.258 123.287v116.364c0 48-19.607 91.636-51.258 123.287s-75.287 51.258-123.287 51.258zM290.909 401.455h-116.364c-48 0-91.636-19.607-123.287-51.258s-51.258-75.287-51.258-123.287v-116.364c0-48 19.607-91.636 51.258-123.287s75.287-51.258 123.287-51.258h116.364c48 0 91.636 19.607 123.287 51.258s51.258 75.287 51.258 123.287v116.364c0 48-19.607 91.636-51.258 123.287s-75.287 51.258-123.287 51.258zM849.455 401.455h-116.364c-48 0-91.636-19.607-123.287-51.258s-51.258-75.287-51.258-123.287v-116.364c0-48 19.607-91.636 51.258-123.287s75.287-51.258 123.287-51.258h116.364c48 0 91.636 19.607 123.287 51.258s51.258 75.287 51.258 123.287v116.364c0 48-19.607 91.636-51.258 123.287s-75.287 51.258-123.287 51.258zM1418.343 960h-116.364c-48 0-91.636-19.607-123.287-51.258s-51.258-75.287-51.258-123.287v-116.364c0-48 19.607-91.636 51.258-123.287s75.287-51.258 123.287-51.258h116.364c48 0 91.636 19.607 123.287 51.258s51.258 75.287 51.258 123.287v116.364c0 48-19.607 91.636-51.258 123.287s-75.287 51.258-123.287 51.258zM1418.343 401.455h-116.364c-48 0-91.636-19.607-123.287-51.258s-51.258-75.287-51.258-123.287v-116.364c0-48 19.607-91.636 51.258-123.287s75.287-51.258 123.287-51.258h116.364c48 0 91.636 19.607 123.287 51.258s51.258 75.287 51.258 123.287v116.364c0 48-19.607 91.636-51.258 123.287s-75.287 51.258-123.287 51.258z" />
<glyph unicode="&#xe92b;" glyph-name="All_logo" d="M473.32 272.646c21.356 11.754 56.021 11.743 77.356 0l71.341-39.295c21.356-11.766 35.364-1.054 31.286 23.817l-13.614 83.218c-4.079 24.917 6.638 59.458 23.893 77.089l57.716 58.931c17.289 17.643 11.897 34.907-11.952 38.539l-79.75 12.144c-23.893 3.632-51.92 24.997-62.593 47.635l-35.66 75.714c-10.684 22.672-28.016 22.637-38.678 0l-35.671-75.714c-10.684-22.672-38.743-44.003-62.593-47.635l-79.75-12.144c-23.882-3.632-29.208-20.919-11.952-38.539l57.705-58.931c17.289-17.654 27.983-52.206 23.904-77.089l-13.614-83.218c-4.079-24.917 9.951-35.56 31.286-23.817l71.341 39.295zM512-3.765c249.507 0 451.765 202.258 451.765 451.765 0 249.495-202.258 451.765-451.765 451.765-249.495 0-451.765-202.27-451.765-451.765 0-249.507 202.27-451.765 451.765-451.765zM512-64c-282.769 0-512 229.231-512 512s229.231 512 512 512c282.769 0 512-229.231 512-512s-229.231-512-512-512z" />
<glyph unicode="&#xe92c;" glyph-name="Commercial" horiz-adv-x="2910" d="M594.508 215.949c-1.804 7.218-4.657 13.94-8.294 20.227l46.885 46.914c14.552-19.237 24.127-42.054 27.561-67.17l-66.151 0.029zM633.069 109.082l-47.147 47.118c3.638 6.199 6.665 12.776 8.556 19.965h66.093c-3.492-24.971-12.922-47.991-27.502-67.083zM537.786 53.553v66.355c7.101 1.833 13.824 4.482 19.994 8.12l46.74-46.856c-19.121-14.377-41.792-24.156-66.734-27.619zM537.786 339.113c25.116-3.492 47.962-13.155 67.228-27.823l-46.827-46.798c-6.315 3.696-13.096 6.606-20.372 8.469l-0.029 66.151zM497.943 272.962c-7.218-1.863-13.97-4.773-20.314-8.469l-46.827 46.827c19.208 14.639 42.112 24.301 67.17 27.794l-0.029-66.151zM497.943 53.553c-24.854 3.405-47.584 13.184-66.704 27.619l46.769 46.769c6.112-3.58 12.864-6.228 19.936-8.032v-66.355zM374.895 176.165h66.588c1.892-7.101 4.686-13.853 8.353-20.023l-47.031-46.943c-14.493 19.121-24.388 41.996-27.91 66.966zM402.66 283.119l46.943-46.914c-3.667-6.286-6.548-13.009-8.353-20.227h-66.093c3.405 25.058 12.98 47.875 27.502 67.141zM517.85 426.394c-126.977 0-229.973-102.88-229.973-229.886 0-9.895 0.786-19.499 2.037-28.929 14.261-113.386 110.767-201.103 227.936-201.103 120.458 0 219.059 92.519 229.071 210.387 0.524 6.548 0.99 12.98 0.99 19.674 0 126.977-102.967 229.857-230.060 229.857zM2252.322 215.949c-1.804 7.218-4.627 13.94-8.265 20.227l46.856 46.914c14.522-19.237 24.097-42.054 27.502-67.17l-66.093 0.029zM2290.855 109.082l-47.147 47.118c3.638 6.199 6.694 12.776 8.585 19.965h66.122c-3.58-24.971-12.98-47.991-27.561-67.083zM2195.571 53.553v66.355c7.072 1.833 13.795 4.482 19.965 8.12l46.798-46.856c-19.121-14.377-41.821-24.156-66.763-27.619zM2195.571 339.113c25.058-3.492 47.904-13.155 67.199-27.823l-46.798-46.798c-6.344 3.696-13.067 6.606-20.343 8.469l-0.058 66.151zM2155.787 272.962c-7.276-1.863-14.057-4.773-20.372-8.469l-46.798 46.827c19.208 14.639 42.083 24.301 67.228 27.794l-0.058-66.151zM2155.787 53.553c-24.912 3.405-47.584 13.184-66.734 27.619l46.711 46.769c6.141-3.58 12.893-6.228 20.023-8.032v-66.355zM2032.71 176.165h66.588c1.892-7.101 4.657-13.853 8.324-20.023l-47.031-46.943c-14.435 19.121-24.359 41.996-27.881 66.966zM2060.445 283.119l46.972-46.914c-3.667-6.286-6.519-13.009-8.382-20.227h-66.093c3.405 25.058 13.009 47.875 27.502 67.141zM2175.665 426.394c-126.977 0-229.915-102.88-229.915-229.886 0-9.895 0.728-19.499 1.921-28.929 14.261-113.386 110.854-201.103 227.994-201.103 120.487 0 219.059 92.519 229.042 210.387 0.611 6.548 1.019 12.98 1.019 19.674 0 126.977-102.996 229.857-230.060 229.857zM1500.64 641.996v220.486h273.977c16.269 0 29.627-12.805 30.267-29.016l7.974-191.47h-312.219zM962.436 641.996c0 0 16.269 39.202 0 84.108l100.93 125.114c5.733 7.13 14.435 11.292 23.574 11.292h301.945v-220.486l-426.449-0.029zM2030.638 657.071l-83.235-0.757-16.734 200.404c-3.492 41.909-38.533 74.184-80.587 74.184h-761.222c-26.6 0-52.095-10.273-71.274-28.638l-255.555-245.281-489.253-51.629c-67.839-7.13-129.887-41.356-172.145-94.905l-50.378-63.852c-38.3-23.661-57.508-69.062-47.758-113.066l15.163-68.596c6.577-29.685 29.773-52.793 59.487-59.225l166.994-36.321c-0.99 9.371-1.863 18.597-1.863 27.124 0 151.948 123.63 275.549 275.578 275.549 152.064 0 275.723-123.63 275.723-275.549 0-7.945-0.524-15.687-1.135-23.457-0.175-2.008-0.582-3.987-0.786-5.937h1110.489c-1.164 10.303-2.037 20.139-2.037 29.394 0 151.948 123.63 275.549 275.607 275.549 152.093 0 275.723-123.63 275.723-275.549 0-7.945-0.582-15.687-1.135-23.457-0.175-2.008-0.64-3.987-0.786-5.937h139.899l126.802 69.848h135.941c20.692 0 37.485 16.763 37.485 37.456v49.33c-0.116 20.78-16.909 37.485-37.572 37.485h-45.372l-11.641 272.667c-0.728 16.822-14.668 30.034-31.49 29.889l-732.934-6.723z" />
<glyph unicode="&#xe92d;" glyph-name="Hatchback" horiz-adv-x="2513" d="M467.068 177.455c-1.599 6.169-4.037 12.034-7.185 17.442l40.444 40.418c12.516-16.553 20.768-36.255 23.738-57.809l-56.997-0.051zM500.327 85.27l-40.647 40.723c3.148 5.306 5.763 10.993 7.388 17.137h56.946c-3.047-21.479-11.196-41.332-23.687-57.86zM418.221 37.489v57.175c6.093 1.625 11.882 3.884 17.188 7.007l40.317-40.342c-16.528-12.39-36.077-20.844-57.505-23.84zM418.221 283.553c21.631-2.996 41.307-11.374 57.886-23.992l-40.368-40.342c-5.433 3.199-11.272 5.712-17.518 7.312v57.022zM383.896 226.531c-6.246-1.599-12.085-4.113-17.518-7.312l-40.368 40.368c16.579 12.593 36.28 20.971 57.886 23.967v-57.022zM383.896 37.463c-21.453 2.996-40.977 11.399-57.479 23.865l40.291 40.291c5.281-3.097 11.12-5.357 17.188-6.956v-57.2zM277.848 143.104h57.378c1.625-6.068 4.011-11.882 7.16-17.163l-40.52-40.495c-12.491 16.452-20.996 36.204-24.017 57.657zM301.764 235.264l40.444-40.418c-3.148-5.408-5.611-11.222-7.185-17.442h-56.997c2.97 21.631 11.272 41.307 23.738 57.86zM401.008 358.754c-109.424 0-198.157-88.682-198.157-198.131 0-8.48 0.685-16.756 1.752-24.957 12.263-97.644 95.435-173.251 196.405-173.251 103.763 0 188.738 79.796 197.344 181.324 0.457 5.611 0.863 11.146 0.863 16.934 0.025 109.373-88.707 198.081-198.207 198.081zM2135.355 177.455c-1.599 6.169-4.037 12.034-7.185 17.442l40.444 40.418c12.516-16.553 20.768-36.255 23.738-57.809l-56.997-0.051zM2168.563 85.27l-40.647 40.723c3.148 5.306 5.763 10.993 7.388 17.137h56.921c-3.047-21.479-11.12-41.332-23.662-57.86zM2086.431 37.489v57.175c6.093 1.625 11.907 3.884 17.213 7.007l40.317-40.342c-16.528-12.39-36.026-20.844-57.53-23.84zM2086.431 283.553c21.656-2.996 41.307-11.374 57.886-23.992l-40.368-40.342c-5.433 3.199-11.298 5.712-17.518 7.312v57.022zM2052.157 226.531c-6.246-1.599-12.085-4.113-17.518-7.312l-40.393 40.368c16.604 12.593 36.331 20.971 57.911 23.967v-57.022zM2052.157 37.463c-21.453 2.996-41.002 11.399-57.479 23.865l40.291 40.291c5.281-3.097 11.095-5.357 17.188-6.956v-57.2zM1946.109 143.104h57.378c1.599-6.068 4.011-11.882 7.16-17.163l-40.545-40.469c-12.44 16.426-20.971 36.179-23.992 57.632zM1969.975 235.264l40.495-40.418c-3.148-5.408-5.662-11.222-7.185-17.442h-56.997c2.97 21.631 11.222 41.307 23.687 57.86zM2069.243 358.754c-109.399 0-198.131-88.682-198.131-198.131 0-8.48 0.66-16.756 1.726-24.957 12.263-97.644 95.46-173.251 196.405-173.251 103.737 0 188.763 79.796 197.344 181.324 0.457 5.611 0.838 11.146 0.838 16.934 0.076 109.373-88.656 198.081-198.182 198.081zM2046.818 677.092l-350.741-27.673v206.027c115.34-8.378 240.682-26.582 375.216-59.079 13.608-3.275 24.525-13.38 28.867-26.683s1.523-27.927-7.54-38.59l-45.801-54.001zM851.581 656.832l18.381 73.449c0 0 278.283 145.577 744.033 129.735v-217.046l-745.937-58.85c0 0 4.011 46.562-16.477 72.712zM2491.217 421.786l-38.083 36.382 0.076 114.781c0.025 30.136-11.12 59.18-31.329 81.522l-140.753 155.987c-0.685 32.396-23.941 59.764-55.778 65.731-167.411 31.456-686.757 112.775-1097.796 2.336-253.96-68.219-512.161-205.545-512.161-205.545s-448.36-57.124-555.804-197.167c-37.423-48.746-53.113-112.775-58.8-170.483-7.947-80.583 45.064-154.184 124.048-171.981l41.459-9.343c-0.355 2.26-0.889 4.468-1.168 6.779-1.371 10.562-2.056 20.438-2.056 29.908 0 131.233 106.784 237.991 238.017 237.991 131.258 0 238.042-106.758 238.042-237.991 0-6.88-0.457-13.532-1.016-20.26-0.685-8.099-1.828-16.071-3.326-23.891l1201.457-2.437c-1.092 5.535-2.183 11.044-2.894 16.68-1.371 10.562-2.056 20.438-2.056 29.908 0 131.233 106.784 237.991 238.017 237.991 131.258 0 238.042-106.758 238.042-237.991 0-6.88-0.457-13.532-1.016-20.26-0.762-9.267-2.285-18.356-4.113-27.267l16.401-0.025 68.32 37.448c71.316 39.022 116.863 112.674 119.935 193.841l1.371 35.544c0.559 15.69-5.611 30.872-17.036 41.815z" />
<glyph unicode="&#xe92e;" glyph-name="Hybrid" horiz-adv-x="3253" d="M633.852 219.915c-1.984 7.546-4.944 14.735-8.815 21.338l49.506 49.474c15.32-20.329 25.436-44.399 29.079-70.876l-69.771 0.065zM674.543 107.111l-49.766 49.799c3.838 6.473 7.058 13.466 9.043 21.012h69.738c-3.708-26.347-13.661-50.612-29.014-70.811zM574.002 48.628v69.966c7.449 1.984 14.54 4.749 21.012 8.555l49.409-49.409c-20.199-15.158-44.107-25.501-70.421-29.112zM574.002 349.893c26.444-3.676 50.58-13.922 70.909-29.339l-49.441-49.441c-6.668 3.936-13.857 6.961-21.468 8.912v69.868zM532.009 280.025c-7.644-2.017-14.8-4.977-21.468-8.912l-49.474 49.474c20.329 15.45 44.432 25.631 70.942 29.307v-69.868zM532.009 48.563c-26.314 3.643-50.189 13.987-70.389 29.177l49.344 49.344c6.473-3.741 13.596-6.505 21.045-8.49v-70.031zM402.161 177.89h70.258c2.017-7.449 4.879-14.54 8.782-21.012l-49.571-49.571c-15.353 20.199-25.729 44.269-29.47 70.584zM431.436 290.759l49.506-49.474c-3.871-6.603-6.863-13.759-8.815-21.338h-69.771c3.676 26.412 13.791 50.482 29.079 70.811zM552.989 441.977c-134.011 0-242.652-108.575-242.652-242.619 0-10.376 0.846-20.525 2.147-30.51 15.028-119.602 116.87-212.109 240.505-212.109 127.051 0 231.105 97.646 241.644 221.9 0.618 6.896 1.041 13.759 1.041 20.785 0.033 133.979-108.608 242.554-242.684 242.554zM2637.522 218.773c-1.952 7.546-4.879 14.67-8.782 21.24l49.311 49.311c15.255-20.232 25.306-44.139 28.917-70.551h-69.445zM2678.018 106.425l-49.539 49.571c3.806 6.505 7.026 13.401 8.977 20.915h69.413c-3.643-26.152-13.564-50.319-28.852-70.486zM2577.932 48.169v69.771c7.449 1.919 14.507 4.749 20.98 8.522l49.148-49.181c-20.134-15.158-43.912-25.436-70.128-29.112zM2577.932 348.199c26.412-3.676 50.384-13.922 70.584-29.209l-49.213-49.213c-6.636 3.903-13.759 6.928-21.37 8.847v69.575zM2536.102 278.623c-7.579-1.984-14.735-4.944-21.305-8.847l-49.278 49.246c20.232 15.32 44.237 25.501 70.584 29.177v-69.575zM2536.102 48.136c-26.184 3.643-49.929 13.954-70.031 29.144l49.083 49.116c6.473-3.741 13.564-6.538 20.98-8.457v-69.803h-0.033zM2406.807 176.911h69.933c2.017-7.449 4.879-14.409 8.75-20.947l-49.409-49.441c-15.19 20.167-25.566 44.237-29.274 70.389zM2435.984 289.292l49.311-49.311c-3.838-6.57-6.831-13.694-8.782-21.24h-69.478c3.611 26.444 13.694 50.319 28.949 70.551zM2556.985 439.86c-133.459 0-241.611-108.12-241.611-241.611 0-10.311 0.813-20.394 2.082-30.38 14.962-119.049 116.382-211.231 239.497-211.231 126.498 0 230.096 97.223 240.57 220.989 0.618 6.831 1.041 13.661 1.041 20.622 0.065 133.491-108.087 241.611-241.578 241.611zM2427.494 657.459h-1111.157c0 0 6.603 26.314-22.444 58.093 0 0 284.059 183.225 722.751 137.459 120.708-12.62 268.218-21.175 469.040-125.554l-58.191-69.998zM3231.628 366.895c-0.846 31.974-10.734 63.135-28.689 89.742l-13.076 19.516-57.15 150.763c-10.734 28.461-37.048 48.27-67.331 50.807-56.207 4.749-151.674 11.97-242.814 15.32-318.537 169.173-907.635 339.257-1407.186 153.886-102.493-38.024-395.334-186.835-395.334-186.835s-475.546 12.035-814.705-108.933c-133.621-47.652-217.899-180.297-203.815-321.497 2.83-28.266 6.993-53.377 11.092-73.674 6.473-32.137 32.982-56.337 65.542-59.915l211.003-23.159c-13.271 27.713-22.606 57.67-26.607 89.645-1.691 13.011-2.537 25.078-2.537 36.821 0 161.529 131.442 292.971 293.004 292.971 161.594 0 293.069-131.474 293.069-292.971 0-8.49-0.553-16.751-1.236-25.013-3.090-36.235-12.978-70.649-28.233-101.972l1477.054 0.716c-13.011 27.355-22.216 57.020-26.152 88.441-1.691 13.141-2.505 25.143-2.505 36.658 0 161.041 130.954 292.028 291.995 292.028s292.028-130.954 292.028-292.028c0-8.392-0.553-16.589-1.236-24.818-2.017-23.907-7.254-46.806-14.735-68.665l32.95 1.984 227.006 30.055c39.488 5.204 74.324 28.494 94.263 62.94l22.606 39c15.58 27.030 23.452 57.801 22.606 88.962l-0.878 39.228z" />
<glyph unicode="&#xe92f;" glyph-name="MPV" horiz-adv-x="2765" d="M543.419 185.223c-1.576 6.166-3.954 11.916-7.078 17.252l39.951 39.951c12.359-16.451 20.542-35.859 23.446-57.204h-56.319zM576.264 94.15l-40.173 40.2c3.097 5.253 5.695 10.921 7.299 16.921h56.264c-2.986-21.206-10.976-40.836-23.39-57.121zM495.062 46.955v56.513c6.083 1.604 11.806 3.871 17.031 6.884l39.841-39.841c-16.257-12.303-35.611-20.653-56.872-23.556zM495.062 290.092c21.4-2.931 40.891-11.197 57.259-23.639l-39.868-39.868c-5.391 3.152-11.17 5.613-17.391 7.244v56.264zM461.221 233.745c-6.193-1.604-11.972-4.064-17.335-7.216l-39.868 39.868c16.368 12.442 35.859 20.708 57.204 23.639v-56.291zM461.221 46.9c-21.206 2.931-40.532 11.253-56.844 23.611l39.813 39.813c5.225-3.041 10.976-5.253 17.004-6.857l0.028-56.568zM356.435 151.271h56.706c1.631-6 3.954-11.75 7.078-16.921l-40.034-40.062c-12.359 16.312-20.819 35.777-23.75 56.983zM380.019 242.427l39.979-39.951c-3.124-5.336-5.502-11.087-7.078-17.252h-56.319c2.903 21.344 11.087 40.753 23.418 57.204zM478.142 364.41c-108.159 0-195.858-87.589-195.858-195.831 0-8.377 0.691-16.561 1.742-24.634 12.11-96.519 94.363-171.252 194.117-171.252 102.546 0 186.513 78.824 195.084 179.159 0.442 5.502 0.829 11.032 0.829 16.672 0 108.297-87.672 195.886-195.914 195.886zM2235.631 197.725c-1.659 6.138-4.037 11.861-7.161 17.225l40.007 39.896c12.331-16.395 20.542-35.804 23.473-57.121h-56.319zM2268.449 106.625l-40.173 40.2c3.097 5.225 5.668 10.893 7.354 16.921h56.208c-2.986-21.178-11.004-40.808-23.39-57.121zM2187.33 59.43v56.513c6.027 1.604 11.778 3.871 16.948 6.884l39.868-39.841c-16.312-12.331-35.611-20.625-56.817-23.556zM2187.33 302.594c21.317-2.931 40.836-11.225 57.176-23.639l-39.841-39.868c-5.364 3.124-11.142 5.585-17.335 7.216v56.291zM2153.378 246.248c-6.166-1.631-11.944-4.064-17.335-7.216l-39.841 39.868c16.368 12.414 35.859 20.708 57.148 23.639v-56.291h0.028zM2153.378 59.375c-21.178 2.931-40.477 11.225-56.817 23.611l39.785 39.813c5.253-3.097 10.976-5.253 17.004-6.857v-56.568h0.028zM2048.62 163.746h56.734c1.631-6.027 3.954-11.75 7.078-16.921l-40.007-40.062c-12.414 16.285-20.874 35.804-23.805 56.983zM2072.204 254.846l39.951-39.896c-3.097-5.364-5.474-11.087-7.078-17.225h-56.319c2.931 21.317 11.114 40.753 23.446 57.121zM2170.327 376.884c-108.131 0-195.831-87.589-195.831-195.858 0-8.377 0.664-16.561 1.687-24.634 12.165-96.492 94.335-171.224 194.144-171.224 102.602 0 186.569 78.852 195.084 179.159 0.498 5.474 0.829 11.032 0.829 16.699 0.028 108.297-87.699 195.858-195.914 195.858zM2431.055 674.733c-19.99-10.423-42.053-16.534-64.586-17.667l-282.258-14.1-118.969 224.087c217.7-9.207 379.082-24.579 410.96-33.675 50.347-14.405 96.049-83.248 94.252-117.476-0.857-16.81-20.128-31.049-39.398-41.168zM1946.497 636.082v123.974l64.088-120.766-64.088-3.207zM914.701 679.931v27.012c0 0 214.659 132.6 522.188 161.603l-29.97-259.421-492.217-24.634c0 0 23.418 10.81 23.418 63.037 0 0-1.825 23.39-23.418 32.403zM1880.971 870.232v-237.386l-343.333-17.169v258.564c1.797 0.028 3.594 0.166 5.474 0.194 117.836 0.995 232.769-0.829 337.859-4.202zM2703.278 349.344l-13.216 5.834v148.027c0 37.601-11.28 74.345-32.459 105.422l-114.269 168.1c-40.145 59.001-103.404 98.15-174.127 107.772-234.4 31.933-784.291 90.437-1148.774-1.88-269.402-68.291-593.188-274.019-593.188-274.019s-415.577-67.655-507.396-117.78c-70.309-38.403-111.836-87.617-118.914-158.23-3.345-33.896 2.737-78.714 9.981-116.177 8.46-43.629 42.633-77.774 86.289-86.151l152.949-29.39c-3.622 12.22-6.47 24.828-8.101 37.822-1.382 10.7-2.046 20.487-2.046 29.887 0 131.273 106.749 238.077 238.022 238.077 131.3 0 238.105-106.804 238.105-238.077 0-6.718-0.442-13.409-0.94-20.045-1.465-17.169-4.977-33.786-9.898-49.739h1241.976c-6.166 16.672-10.7 34.062-12.967 52.365-1.382 10.7-2.046 20.487-2.046 29.915 0 131.245 106.721 238.022 237.994 238.022 131.3 0 238.132-106.777 238.132-238.022 0-6.774-0.47-13.437-0.94-20.1-1.825-21.704-6.829-42.523-14.1-62.18h1.576l288.147 88.252c26.044 7.935 45.094 30.385 48.771 57.342l5.889 43.048c3.594 26.072-10.479 51.287-34.449 61.904z" />
<glyph unicode="&#xe930;" glyph-name="Sedan" horiz-adv-x="2803" d="M559.506 164.187c-1.727 6.596-4.331 12.824-7.672 18.542l43.142 43.142c13.333-17.693 22.137-38.698 25.308-61.712l-60.778 0.028zM594.891 65.844l-43.34 43.425c3.397 5.69 6.143 11.776 7.87 18.287h60.75c-3.227-22.901-11.861-44.076-25.279-61.712zM507.362 14.946v60.92c6.511 1.698 12.654 4.105 18.316 7.473l43-43c-17.608-13.305-38.443-22.194-61.316-25.393zM507.362 277.392c23.043-3.199 44.076-12.173 61.741-25.562l-43.029-43.085c-5.775 3.425-12.059 6.058-18.684 7.813l-0.028 60.835zM470.759 216.529c-6.652-1.755-12.88-4.388-18.684-7.813l-43.057 43.085c17.693 13.418 38.698 22.335 61.741 25.534v-60.806zM470.759 14.889c-22.901 3.199-43.708 12.144-61.316 25.449l42.972 43c5.662-3.34 11.861-5.775 18.344-7.445v-61.004zM357.611 127.585h61.231c1.727-6.511 4.275-12.682 7.672-18.344l-43.199-43.199c-13.39 17.551-22.392 38.584-25.704 61.542zM383.23 225.871l43.085-43.142c-3.34-5.718-5.973-11.946-7.672-18.542h-60.75c3.114 22.986 11.918 43.991 25.336 61.684zM489.047 357.618c-116.744 0-211.407-94.663-211.407-211.435 0-8.974 0.736-17.863 1.868-26.525 13.107-104.203 101.797-184.825 209.51-184.825 110.629 0 201.329 85.038 210.529 193.374 0.481 5.916 0.878 11.918 0.878 18.004 0.028 116.744-94.606 211.407-211.378 211.407zM2314.887 164.187c-1.755 6.596-4.303 12.824-7.672 18.542l43.114 43.142c13.362-17.693 22.109-38.698 25.308-61.712l-60.75 0.028zM2350.272 65.844l-43.34 43.368c3.397 5.718 6.171 11.776 7.841 18.316h60.778c-3.255-22.873-11.833-44.048-25.279-61.684zM2262.743 14.946v60.92c6.539 1.698 12.654 4.105 18.344 7.473l42.972-43c-17.608-13.305-38.443-22.194-61.316-25.393zM2262.743 277.392c23.071-3.199 44.104-12.173 61.769-25.562l-43.085-43.085c-5.775 3.425-12.031 6.115-18.684 7.813v60.835zM2226.112 216.529c-6.624-1.755-12.88-4.388-18.684-7.813l-43.029 43.085c17.693 13.418 38.669 22.335 61.712 25.534v-60.806zM2226.112 14.889c-22.873 3.199-43.708 12.144-61.316 25.449l43 43c5.662-3.34 11.861-5.775 18.316-7.445v-61.004zM2112.992 127.585h61.231c1.755-6.511 4.303-12.682 7.7-18.344l-43.199-43.199c-13.418 17.551-22.477 38.584-25.732 61.542zM2138.582 225.871l43.085-43.142c-3.34-5.718-5.973-11.946-7.7-18.542h-60.721c3.114 22.986 11.946 43.991 25.336 61.684zM2244.427 357.618c-116.744 0-211.407-94.663-211.407-211.435 0-8.974 0.708-17.863 1.84-26.525 13.107-104.203 101.797-184.825 209.51-184.825 110.629 0 201.301 85.038 210.529 193.374 0.51 5.916 0.906 11.918 0.906 18.004 0.028 116.744-94.606 211.407-211.378 211.407zM2271.926 638.366h-119.49l-119.433 164.047c89.624-35.669 161.329-70.827 204.075-93.050 25.93-13.475 40.085-42.264 34.848-70.997zM2030.144 636.894l-428.843-14.409 38.867 240.338c221.626 2.887 348.249-46.029 348.249-46.029l63.326-102.193-21.599-77.706zM1501.967 615.352l-470.626-14.409c8.662 70.516-33.092 86.34-33.092 86.34 187.090 169.822 564.185 175.568 564.185 175.568l-60.467-247.5zM2752.036 467.044v156.432c0 25.166-18.287 46.482-43.114 50.361-59.674 9.342-165.406 26.978-212.907 41.613-68.11 21.005-331.264 132.426-422.389 153.346-91.153 20.92-502.133 132.625-895.761-3.822-66.61-23.071-366.253-166.312-542.445-240.791-51.889-1.132-565.488-108.195-592.833-181.57-27.346-73.404-35.923-109.015-40.962-127.642s0-107.77 38.16-169.85c38.896-21.996 113.771-36.773 200.338-46.68-0.991 5.294-2.067 10.502-2.746 15.853-1.5 11.437-2.208 21.882-2.208 31.847 0 139.985 113.856 253.898 253.869 253.898s253.869-113.884 253.869-253.898c0-7.19-0.481-14.324-1.019-21.344-1.33-15.711-4.161-30.969-8.266-45.633h0.679l1260.174 25.336c-0.566 3.255-1.302 6.511-1.727 9.795-1.5 11.38-2.18 21.854-2.18 31.847 0 139.985 113.828 253.869 253.841 253.869 140.041 0 253.898-113.856 253.898-253.869 0-0.538-0.057-0.962-0.085-1.5l5.407 0.453 215.427 40.566c0 0 82.519 43.935 82.519 164.839 0.028 80.594-49.54 116.545-49.54 116.545z" />
<glyph unicode="&#xe931;" glyph-name="Sport" horiz-adv-x="3253" d="M822.414 101.517l-48.628 47.717c3.578 6.343 6.668 13.141 8.555 20.557l67.526 0.651c-3.318-25.599-12.686-49.278-27.453-68.925zM725.581 43.846l-0.651 67.819c7.254 1.952 14.052 4.749 20.329 8.555l48.238-47.457c-19.386-14.962-42.513-25.208-67.916-28.917zM722.784 335.809c25.729-3.318 49.181-13.011 68.957-27.778l-47.424-48.27c-6.44 3.708-13.434 6.57-20.915 8.522l-0.618 67.526zM849.639 211.035l-67.656-0.651c-1.919 7.384-4.879 14.247-8.75 20.622l47.555 48.498c15.060-19.549 25.078-42.806 28.852-68.469zM616.323 71.039l47.392 48.303c6.278-3.545 13.239-6.278 20.492-8.067l0.618-67.851c-25.469 3.253-48.791 13.108-68.502 27.615zM557.741 167.579l68.144 0.651c2.017-7.254 4.879-14.052 8.717-20.329l-47.652-48.498c-14.962 19.386-25.339 42.708-29.209 68.177zM585.162 277.195l48.4-47.522c-3.611-6.44-6.505-13.369-8.294-20.687l-67.624-0.748c3.253 25.729 12.816 49.181 27.518 68.957zM682.092 335.386l0.618-67.656c-7.416-1.984-14.247-4.912-20.72-8.847l-48.335 47.457c19.549 15.19 42.806 25.339 68.437 29.047zM701.544 424.933c-129.913-1.269-234.162-107.502-232.926-237.415 0.098-10.148 0.943-19.874 2.309-29.632 15.678-115.829 115.211-204.563 235.106-203.359 123.18 1.171 223.103 96.735 232.178 217.313 0.488 6.668 0.911 13.336 0.846 20.069-1.236 129.946-107.567 234.26-237.513 233.024zM2721.598 101.517l-48.628 47.717c3.578 6.343 6.668 13.141 8.587 20.557l67.494 0.651c-3.318-25.599-12.686-49.278-27.453-68.925zM2624.699 43.846l-0.651 67.819c7.286 1.952 14.084 4.749 20.329 8.555l48.238-47.457c-19.289-14.962-42.448-25.208-67.916-28.917zM2621.935 335.809c25.696-3.318 49.181-13.011 68.925-27.778l-47.424-48.27c-6.408 3.708-13.401 6.57-20.915 8.522l-0.585 67.526zM2748.823 211.035l-67.656-0.651c-1.919 7.384-4.879 14.247-8.75 20.622l47.555 48.498c15.060-19.549 25.078-42.806 28.852-68.469zM2515.506 71.039l47.392 48.303c6.245-3.545 13.239-6.278 20.46-8.067l0.683-67.851c-25.501 3.253-48.856 13.108-68.535 27.615zM2456.925 167.579l68.144 0.651c2.049-7.254 4.847-14.052 8.75-20.329l-47.685-48.498c-14.962 19.386-25.404 42.708-29.209 68.177zM2484.345 277.195l48.4-47.522c-3.643-6.44-6.505-13.369-8.327-20.687l-67.591-0.748c3.253 25.729 12.816 49.181 27.518 68.957zM2581.243 335.386l0.618-67.656c-7.416-1.984-14.214-4.912-20.72-8.847l-48.335 47.457c19.516 15.19 42.773 25.339 68.437 29.047zM2600.727 424.933c-129.913-1.269-234.162-107.502-232.926-237.415 0.098-10.148 0.943-19.874 2.309-29.632 15.646-115.829 115.211-204.563 235.106-203.359 123.147 1.171 223.103 96.735 232.211 217.313 0.488 6.668 0.878 13.336 0.813 20.069-1.236 129.946-107.567 234.26-237.513 233.024zM2107.298 642.786l-629.529-18.508c0 0-0.098 77.642-93.157 87.303l148.421 87.921c53.637 31.811 114.235 48.010 176.557 47.522 113.584-0.878 301.754-2.992 412.833-7.741 19.711-0.813 37.666-11.807 47.424-29.014s9.953-38.252 0.455-55.621c-31.063-57.183-63.005-111.861-63.005-111.861zM3224.115 676.907c-3.806 4.749-9.595 7.579-15.711 7.579h-207.783c-8.229 0-15.613-5.074-18.605-12.783l-13.239-33.991c0 0-586.268 213.735-717.059 259.208-101.354 35.259-381.152 32.657-545.641 27.615-81.057-2.505-162.147-19.191-237.48-49.311-138.468-55.329-370.256-150.535-489.5-214.158-283.473-5.985-548.959-70.421-607.801-98.85-58.809-28.461-185.86-142.273-185.86-142.273l-153.658-80.96c-20.947-11.059-33.34-33.438-31.616-57.118l9.205-124.123c2.049-27.778 23.029-50.319 50.515-54.515l366.027-55.198 30.12 1.236c-17.532 30.738-29.665 65.152-34.641 102.005-1.756 12.425-2.667 24.2-2.797 35.747-1.496 157.268 125.229 286.466 282.53 287.995 158.602 0 286.531-126.758 287.995-282.595 0.065-8.164-0.39-16.198-0.943-24.265-2.635-34.706-11.775-67.689-25.892-97.906l1380.774 2.862c-11.027 24.363-18.768 50.58-22.476 78.097-1.756 12.49-2.7 24.233-2.797 35.78-1.496 157.268 125.229 286.466 282.53 287.995 158.569 0 286.563-126.758 287.995-282.595 0.065-8.164-0.39-16.198-1.008-24.265-1.366-18.313-4.489-36.235-9.238-53.54l12.848 1.008 248.377 74.519c22.704 6.798 39.195 26.444 42.057 49.897l22.183 185.111c2.797 23.322-2.017 46.839-13.726 67.201l-41.667 72.535 64.371 48.888c3.708 2.83 6.31 6.831 7.449 11.384l8.132 34.609c1.171 6.115-0.228 12.393-3.968 17.174z" />
<glyph unicode="&#xe932;" glyph-name="SUV" horiz-adv-x="2910" d="M2746.116 659.129c-1.804-3.056-5.122-4.889-8.673-4.918l-625.776-4.715c-27.066-0.204-52.357 13.62-66.879 36.524l-65.599 175.521c-2.357 6.286-1.455 13.3 2.357 18.801s10.099 8.789 16.793 8.789h661.98c8.876 0 16.705-5.704 19.47-14.144l66.588-205.876c1.659-3.172 1.542-6.956-0.262-9.982zM1834.809 659.303c-12.951-15.687-32.101-24.941-52.473-25.407l-308.057-6.694c-5.53-0.116-10.855 1.95-14.784 5.792-3.958 3.871-6.17 9.167-6.17 14.668v221.038c0 11.292 9.138 20.43 20.43 20.43h341.875c10.623 0 19.412-8.062 20.372-18.626l13.766-154.916c3.405-20.052-2.037-40.628-14.959-56.286zM1351.405 642.191c-3.9-4.133-9.284-6.49-14.988-6.49h-384.918c0 0 23.632 12.136 36.030 29.452 12.398 17.258 5.53 58.148-8.382 71.943-12.776 12.631-38.503 21.216-38.503 21.216l193.594 119.177c12.398 7.654 26.658 11.67 41.239 11.67h163.793c5.471 0 10.71-2.183 14.552-6.083s5.966-9.138 5.879-14.639l-2.823-210.823c0.378-5.704-1.601-11.263-5.471-15.425zM2869.193 393.824l-19.79 3.085c7.101 271.358-35.535 326.014-83.206 492.193h26.251c12.456 0 22.468 10.099 22.468 22.526v25.873c0 12.427-10.070 22.497-22.468 22.497h-1595.639c-23.457 0-46.42-6.286-66.53-18.189l-483.607-285.677c0 0-484.131-19.528-559.188-93.77-37.892-37.514-72.205-111.523-84.69-196.941-12.514-85.389 20.168-176.423 38.707-196.068 18.626-19.616 48.399-29.045 48.399-29.045l11.845-22.439c7.596-14.435 22.671-23.312 39.027-22.904l77.822 1.863v214.869c0 83.322 67.636 150.987 151.016 150.987h206.574c73.107 0 132.39-59.225 132.39-132.39v-221.533l3.492 0.087 1263.543 19.412 18.189-1.833v185.3c0 83.322 67.665 150.987 151.016 150.987h206.632c73.107 0 132.332-59.225 132.332-132.39v-242.226l174.386 37.019c9.167 1.95 16.996 8.032 21.216 16.472l12.747 25.378 176.307 23.079c15.425 2.008 27.008 15.192 27.008 30.791v142.402c-0.058 15.192-11.176 28.201-26.251 30.587zM537.899 214.665c-1.688 6.956-4.482 13.533-8.003 19.732l45.517 45.488c14.144-18.742 23.457-40.832 26.775-65.22h-64.289zM575.384 110.942l-45.75 45.75c3.492 5.966 6.461 12.427 8.265 19.324h64.143c-3.376-24.214-12.485-46.594-26.658-65.075zM482.807 57.043v64.405c6.897 1.804 13.446 4.336 19.47 7.887l45.372-45.517c-18.568-13.999-40.599-23.486-64.842-26.775zM482.807 334.308c24.447-3.376 46.623-12.747 65.307-27.095l-45.488-45.43c-6.083 3.551-12.747 6.432-19.848 8.178l0.029 64.347zM444.158 270.019c-6.956-1.804-13.562-4.627-19.732-8.207l-45.43 45.488c18.655 14.231 40.832 23.632 65.133 27.037l0.029-64.318zM444.158 57.043c-24.127 3.23-46.158 12.747-64.755 26.775l45.43 45.459c5.908-3.492 12.514-6.024 19.324-7.858v-64.376zM324.689 176.016h64.725c1.833-6.81 4.482-13.358 8.12-19.383l-45.721-45.605c-14.086 18.539-23.69 40.774-27.124 64.987zM351.639 279.885l45.634-45.488c-3.58-6.199-6.432-12.747-8.12-19.732h-64.231c3.318 24.388 12.631 46.565 26.717 65.22zM463.482 419.057c-123.252 0-223.309-99.911-223.309-223.25 0-9.604 0.786-18.859 1.95-28.143 13.882-110.039 107.565-195.253 221.33-195.253 117.053 0 212.744 89.812 222.465 204.304 0.553 6.374 0.96 12.631 0.96 19.092 0.029 123.339-99.969 223.25-223.396 223.25zM2313.151 214.665c-1.746 6.956-4.511 13.533-7.974 19.732l45.459 45.488c14.086-18.742 23.486-40.832 26.804-65.22h-64.289zM2350.607 110.942l-45.75 45.75c3.492 5.966 6.49 12.427 8.294 19.324h64.114c-3.347-24.214-12.514-46.594-26.658-65.075zM2258.059 57.043v64.405c6.868 1.804 13.417 4.336 19.441 7.887l45.401-45.517c-18.626-13.999-40.628-23.486-64.842-26.775zM2258.059 334.308c24.418-3.376 46.623-12.747 65.307-27.095l-45.517-45.43c-6.083 3.551-12.718 6.432-19.819 8.178l0.029 64.347zM2219.352 270.019c-6.897-1.804-13.533-4.627-19.732-8.207l-45.459 45.488c18.655 14.231 40.803 23.632 65.133 27.037l0.058-64.318zM2219.352 57.043c-24.156 3.23-46.187 12.747-64.755 26.775l45.43 45.459c5.908-3.492 12.573-6.024 19.324-7.858v-64.376zM2099.912 176.016h64.696c1.863-6.81 4.482-13.358 8.12-19.383l-45.692-45.605c-14.115 18.539-23.69 40.774-27.124 64.987zM2126.891 279.885l45.576-45.488c-3.58-6.199-6.432-12.747-8.091-19.732h-64.202c3.289 24.388 12.573 46.565 26.717 65.22zM2238.705 419.057c-123.252 0-223.338-99.911-223.338-223.25 0-9.604 0.757-18.859 1.979-28.143 13.853-110.039 107.536-195.253 221.3-195.253 117.053 0 212.744 89.812 222.465 204.304 0.582 6.374 0.931 12.631 0.931 19.092 0.058 123.339-99.853 223.25-223.338 223.25z" />
<glyph unicode="&#xe933;" glyph-name="Calender" horiz-adv-x="1084" d="M1012.193 605.192h-940.151v151.289c0 34.22 28.817 63.037 63.037 63.037h115.268v-32.419c0-19.812 16.228-36.021 36.021-36.021 19.812 0 36.021 16.209 36.021 36.021v32.419h183.708v-32.419c0-19.812 16.209-36.021 36.021-36.021s36.021 16.209 36.021 36.021v32.419h183.726v-32.419c0-19.812 16.191-36.021 36.021-36.021 19.794 0 36.021 16.209 36.021 36.021v32.419h115.25c34.22 0 63.037-28.817 63.037-63.037v-151.289zM1012.193 86.488c0-34.22-28.817-63.037-63.037-63.037h-814.077c-34.22 0-63.037 28.817-63.037 63.037v446.662h940.151v-446.662zM949.156 891.56h-115.25v32.419c0 19.812-16.228 36.021-36.021 36.021-19.83 0-36.021-16.209-36.021-36.021v-32.419h-183.726v32.419c0 19.812-16.209 36.021-36.021 36.021s-36.021-16.209-36.021-36.021v-32.419h-183.708v32.419c0 19.812-16.209 36.021-36.021 36.021-19.794 0-36.021-16.209-36.021-36.021v-32.419h-115.268c-73.843 0-135.079-61.236-135.079-135.079v-669.993c0-73.825 61.236-135.079 135.079-135.079h814.077c73.861 0 135.079 61.254 135.079 135.079v669.993c0 73.843-61.218 135.079-135.079 135.079z" />
<glyph unicode="&#xe934;" glyph-name="Bell" d="M526.499 865.466c-0.186 5.772-0.652 11.543-1.35 17.268-1.489 5.26-5.679 9.356-11.031 10.659-1.21 0.279-2.42 0.419-3.677 0.419-6.842 0-12.8-4.515-14.615-11.078-0.698-5.725-1.117-11.497-1.35-17.268h32.023zM848.361 156.579c-22.714 21.364-42.915 45.335-60.137 71.354-42.636 64.838-64.791 140.102-64.047 217.647v140.474c-0.093 13.871-1.21 27.974-3.398 41.844-15.686 97.28-106.496 173.521-206.848 173.521h-6.796c-100.119 0-191.116-76.102-207.127-173.242-2.188-13.777-3.305-27.834-3.398-41.844v-140.474c0.884-77.545-21.178-152.902-63.721-217.879-17.315-26.065-37.609-50.036-60.416-71.401h675.887zM870.33 90.764c-1.21 0-2.467 0.047-3.677 0.14l-713.169-0.047c-0.605-0.047-1.815-0.093-3.025-0.093-23.645 0-45.149 14.895-53.481 37.050-9.309 23.505-1.536 50.548 18.991 65.629 23.924 20.387 45.242 44.544 62.929 71.354 35.747 55.668 53.9 120.134 52.41 186.415-0.326 30.953-0.233 61.812-0.14 92.672 0.093 15.36 0.14 30.767 0.14 46.173-0.047 114.874 72.285 218.95 180.038 258.932 2.886 1.21 6.423 2.048 9.449 2.793 2.467 0.605 7.633 1.815 8.285 2.886 1.303 2.048 0.884 7.773 0.512 12.381-0.186 2.7-0.372 5.446-0.372 8.052-1.536 26.764 11.59 53.295 34.257 68.608 12.567 6.842 25.041 12.009 37.795 15.872l1.35 0.419h15.779l1.303-0.419c12.753-3.77 25.181-8.844 36.864-15.081l0.931-0.512c22.668-15.313 35.793-41.844 34.211-69.167 0.047-1.815-0.093-4.329-0.233-6.842-0.186-4.282-0.559-11.357 0.605-13.359 0.977-0.838 6.051-2.141 9.076-2.886 2.932-0.791 5.818-1.536 8.425-2.467 107.846-40.076 180.177-144.244 179.991-259.258 0-15.36 0.047-30.767 0.14-46.127 0.093-30.348 0.186-61.719-0.14-92.579-1.443-66.374 16.803-130.839 52.689-186.601 17.594-26.764 39.005-50.921 63.441-71.773 19.828-14.801 27.415-41.798 18.013-65.35-8.285-21.923-29.743-36.817-53.388-36.817zM494.862-63.465l-1.257 0.326c-19.363 5.399-36.724 17.082-49.012 33.001-11.031 15.034-16.198 33.327-14.662 51.759l0.745 8.704h159.325l0.745-8.704c1.629-18.339-3.491-36.678-14.383-51.572-12.335-16.105-29.743-27.788-49.105-33.187l-1.257-0.326h-31.139z" />
<glyph unicode="&#xe935;" glyph-name="Book_a_Service" d="M809.479 273.553c0 38.254-31.013 69.277-69.277 69.277-38.254 0-69.277-31.023-69.277-69.277 0-38.264 31.023-69.277 69.277-69.277 38.233 0.052 69.224 31.044 69.277 69.277zM851.275 273.553c0-61.346-49.727-111.073-111.073-111.073s-111.073 49.727-111.073 111.073c0 61.304 49.664 111.020 110.968 111.073 61.336-0.052 111.062-49.737 111.177-111.073zM982.201 290.271c0.021 4.566-3.229 8.485-7.732 9.3l-39.382 6.896c-8.025 1.379-14.503 7.304-16.614 15.151-4.159 15.433-10.303 30.26-18.286 44.095-4.065 7.053-3.657 15.82 1.034 22.465l22.988 32.81c2.602 3.73 2.173 8.788-1.045 12.016l-23.719 23.51c-3.218 3.208-8.286 3.647-12.016 1.045l-32.81-22.988c-6.635-4.692-15.402-5.099-22.465-1.045-13.834 7.993-28.662 14.137-44.095 18.286-7.732 2.215-13.5 8.683-14.838 16.614l-6.896 39.393c-0.805 4.493-4.733 7.753-9.3 7.732h-33.437c-4.556 0.021-8.485-3.239-9.289-7.732l-6.907-39.393c-1.379-8.014-7.293-14.493-15.151-16.614-15.527-4.096-30.469-10.209-44.408-18.181-7.053-4.054-15.809-3.647-22.465 1.045l-32.81 22.988c-3.73 2.602-8.788 2.163-12.016-1.045l-23.395-24.137c-3.218-3.229-3.657-8.286-1.055-12.016l22.988-32.705c4.692-6.646 5.099-15.412 1.045-22.465-7.993-13.834-14.137-28.662-18.286-44.095-2.111-7.847-8.589-13.761-16.614-15.151l-39.393-6.896c-4.493-0.815-7.753-4.733-7.732-9.3v-33.437c-0.010-4.598 3.302-8.537 7.837-9.3l39.403-6.896c8.004-1.39 14.482-7.304 16.614-15.151 4.127-15.172 10.209-29.738 18.066-43.363 4.065-7.053 3.657-15.82-1.045-22.465l-22.988-32.81c-2.602-3.741-2.163-8.788 1.045-12.016l23.625-23.615c3.218-3.208 8.286-3.647 12.006-1.045l32.705 22.988c6.656 4.692 15.412 5.099 22.465 1.045 13.834-7.993 28.662-14.148 44.095-18.286 7.858-2.121 13.761-8.6 15.151-16.614l6.896-39.393c0.805-4.493 4.733-7.764 9.3-7.732h33.437c4.608-0.021 8.537 3.302 9.3 7.837l7.21 39.079c1.39 8.014 7.304 14.493 15.151 16.614 15.402 4.159 30.187 10.303 43.99 18.286 7.032 4.086 15.799 3.72 22.465-0.94l32.81-22.988c3.73-2.612 8.788-2.173 12.016 1.045l23.625 23.615c3.197 3.218 3.636 8.286 1.034 12.016l-22.988 32.81c-4.692 6.656-5.089 15.412-1.045 22.465 7.993 13.834 14.137 28.662 18.286 44.095 2.121 7.858 8.61 13.761 16.614 15.151l39.393 6.896c4.493 0.805 7.753 4.733 7.732 9.3l-0.104 33.228zM1023.997 290.271v-33.437c0.063-24.879-17.805-46.195-42.318-50.469l-26.749-4.702c-3.344-10.031-7.398-19.801-12.11-29.257l15.559-22.047c14.326-20.355 11.901-48.065-5.747-65.62l-23.615-23.615c-17.565-17.607-45.255-20.020-65.62-5.747l-22.256 15.569c-9.456-4.723-19.237-8.767-29.257-12.121l-4.702-26.749c-4.274-24.513-25.579-42.381-50.469-42.318h-33.437c-24.879-0.063-46.195 17.805-50.469 42.318l-4.075 26.645c-10.021 3.354-19.801 7.398-29.257 12.121l-22.988-15.569c-20.365-14.284-48.034-11.849-65.62 5.747l-23.615 23.615c-17.596 17.648-19.895 45.432-5.433 65.724l15.569 22.256c-4.712 9.456-8.767 19.237-12.121 29.257l-26.749 4.702c-24.513 4.274-42.381 25.59-42.318 50.469v33.437c-0.063 24.879 17.805 46.195 42.318 50.469l26.749 4.702c3.354 10.021 7.408 19.801 12.121 29.257l-15.569 22.256c-14.315 20.355-11.891 48.065 5.757 65.62l23.604 23.615c17.607 17.324 45.087 19.613 65.306 5.433l22.256-15.569c9.697 4.744 19.717 8.798 29.989 12.121l4.702 26.749c4.065 24.482 25.13 42.506 49.957 42.736h33.426c24.889 0.063 46.195-17.805 50.469-42.318l4.702-26.749c10.021-3.354 19.801-7.398 29.257-12.121l22.256 15.569c20.365 14.273 48.055 11.849 65.62-5.747l23.615-23.615c17.638-17.554 20.072-45.265 5.757-65.62l-15.569-22.256c4.712-9.456 8.756-19.237 12.121-29.257l26.739-4.702c24.597-4.336 42.444-25.819 42.214-50.782zM327.886 440.423c0.031 8.046-5.381 15.088-13.166 17.136l-90.802 23.824c-1.463 0.397-2.968 0.606-4.493 0.627-9.749 0-17.659-7.899-17.669-17.648 0-0.178 0.010-0.355 0.010-0.533v-23.824c0.23-9.592 8.067-17.241 17.659-17.241h90.802c9.759 0 17.659 7.91 17.659 17.659zM325.274 497.892c31.807-8.192 50.939-40.615 42.736-72.411-6.781-26.331-30.574-44.711-57.783-44.617h-90.802c-32.81 0.052-59.392 26.645-59.455 59.455v23.51c0.031 32.841 26.676 59.434 59.507 59.402 5.068 0 10.094-0.648 14.994-1.933l90.802-23.406zM-0.003 606.666v36.467c0.93 37.439 31.002 67.605 68.441 68.65h18.913c16.29-0.293 32.225-4.754 46.289-12.957 17.241 41.796 44.408 103.34 64.052 131.553 37.512 54.021 91.22 68.859 128.209 75.337 56.372 8.767 113.392 12.581 170.423 11.389 56.895 1.233 113.768-2.508 170.005-11.18 37.104-6.478 90.697-20.898 128.209-75.337 19.644-28.212 46.811-90.175 64.052-131.553 13.97 8.171 29.8 12.633 45.986 12.957h19.32c37.669-0.836 67.981-31.19 68.754-68.859v-36.467c-0.784-38.63-31.995-69.716-70.625-70.322h-21.744c-11.536 0-20.898 9.352-20.898 20.898 0 11.536 9.362 20.898 20.898 20.898h20.898c16.259 0.219 29.393 13.312 29.675 29.571v33.959c0 15.517-12.487 28.139-27.993 28.317h-17.774c-15.611-0.961-30.281-7.795-41.054-19.122-8.432-7.889-21.661-7.45-29.539 0.993-1.755 1.87-3.145 4.044-4.117 6.426-28.212 70.008-54.962 126.851-69.799 148.167-28.317 40.647-68.859 52.245-101.136 57.992-53.875 8.182-108.345 11.682-162.806 10.449-54.46 1.233-108.931-2.267-162.795-10.449-32.183-5.642-73.143-17.345-101.146-57.992-14.838-20.898-41.796-78.158-69.799-148.167-4.326-10.7-16.509-15.862-27.209-11.525-2.382 0.961-4.556 2.351-6.437 4.106-10.971 11.483-25.934 18.328-41.796 19.122h-17.345c-15.632 0-28.317-12.675-28.317-28.317v-34.168c0.334-16.175 13.396-29.184 29.571-29.466h23.824c7.868-0.146 15.026-4.545 18.704-11.494 3.563-7.095 2.79-15.6-1.985-21.943-2.288-3.072-4.493-6.123-6.583-9.195-21.023-32.026-31.681-69.747-30.511-108.042v-237.505c-0.167-15.862 12.549-28.871 28.421-29.048h63.948c15.788 0.063 28.578 12.842 28.641 28.63v37.616c0 11.536 9.352 20.898 20.898 20.898h187.653c11.546 0 20.898-9.362 20.898-20.898 0-11.546-9.352-20.898-20.898-20.898h-166.348v-16.3c0.178-38.954-31.263-70.666-70.217-70.844h-64.47c-38.87 0.063-70.363 31.545-70.426 70.426v237.61c-0.846 38.431 7.91 76.466 25.496 110.655-33.311 6.311-57.668 35.067-58.41 68.963z" />
<glyph unicode="&#xe936;" glyph-name="Bookmark_02" d="M1022.010 556.675c0 15.151-11.462 24.567-34.403 28.257l-308.314 44.828-138.188 279.462c-7.775 16.788-17.815 25.178-30.096 25.178-12.279 0-22.313-8.39-30.094-25.178l-138.197-279.462-308.327-44.828c-22.924-3.689-34.39-13.105-34.39-28.257 0-8.603 5.12-18.43 15.358-29.485l223.568-217.424-52.82-307.090c-0.82-5.735-1.226-9.842-1.226-12.288 0-8.599 2.147-15.863 6.445-21.805 4.296-5.95 10.741-8.911 19.344-8.911 7.375 0 15.56 2.448 24.567 7.364l275.766 144.965 275.785-144.965c8.614-4.916 16.801-7.364 24.559-7.364 8.216 0 14.446 2.96 18.744 8.911 4.285 5.933 6.434 13.207 6.434 21.805 0 5.316-0.207 9.41-0.617 12.288l-52.824 307.090 222.95 217.424c10.659 10.647 15.977 20.478 15.977 29.485z" />
<glyph unicode="&#xe937;" glyph-name="Calculate" d="M654.884 161.863c-13.145 0-23.814-10.669-23.814-23.814s10.669-23.814 23.814-23.814h214.326c13.145 0 23.814 10.669 23.814 23.814s-10.669 23.814-23.814 23.814h-214.326zM654.884 280.933c-13.145 0-23.814-10.669-23.814-23.814s10.669-23.814 23.814-23.814h214.326c13.145 0 23.814 10.669 23.814 23.814s-10.669 23.814-23.814 23.814h-214.326zM169.305 314.047c-6.096 0-12.097-2.417-16.753-7.061-9.299-9.311-9.299-24.195 0-33.494l75.907-75.907-75.907-75.907c-9.299-9.299-9.299-24.183 0-33.482 9.311-9.311 24.195-9.311 33.494 0l75.907 75.895 75.907-75.895c9.299-9.311 24.183-9.311 33.494 0 9.299 9.299 9.299 24.183 0 33.482l-75.907 75.907 75.907 75.907c9.299 9.299 9.299 24.195 0 33.494-9.311 9.299-24.195 9.299-33.494 0l-75.907-75.919-75.907 75.919c-4.656 4.644-10.657 7.061-16.741 7.061zM535.814 424.186h440.558v-273.86c0-92.767-73.93-166.698-166.698-166.698h-273.86v440.558zM47.628 424.186h440.558v-440.558h-273.86c-92.767 0-166.698 73.93-166.698 166.698v273.86zM654.884 721.86c-13.145 0-23.814-10.657-23.814-23.814 0-13.145 10.669-23.814 23.814-23.814h214.326c13.145 0 23.814 10.669 23.814 23.814 0 13.157-10.669 23.814-23.814 23.814h-214.326zM261.953 829.023c-13.145 0-23.814-10.657-23.814-23.814v-83.349h-83.349c-13.145 0-23.814-10.657-23.814-23.814 0-13.145 10.669-23.814 23.814-23.814h83.349v-83.349c0-13.145 10.669-23.814 23.814-23.814s23.814 10.669 23.814 23.814v83.349h83.349c13.145 0 23.814 10.669 23.814 23.814 0 13.157-10.669 23.814-23.814 23.814h-83.349v83.349c0 13.157-10.669 23.814-23.814 23.814zM535.814 912.372h273.86c92.767 0 166.698-73.93 166.698-166.698v-273.86h-440.558v440.558zM214.326 912.372h273.86v-440.558h-440.558v273.86c0 92.767 73.93 166.698 166.698 166.698zM214.326 960c-118.332 0-214.326-95.994-214.326-214.326v-595.349c0-118.32 95.994-214.326 214.326-214.326h595.349c118.32 0 214.326 96.006 214.326 214.326v595.349c0 118.332-96.006 214.326-214.326 214.326h-595.349z" />
<glyph unicode="&#xe938;" glyph-name="Car" d="M222.545 191.974h-93.091v-95.639c0-3.747 1.699-7.889 8.367-12.73 6.668-4.829 18.781-9.449 38.179-9.449 12.288 0 26.159 4.305 35.27 10.182 9.123 5.865 11.276 11.997 11.276 11.997v95.639zM907.636 191.974h-93.091v-95.639c0-3.747 1.699-7.889 8.367-12.73 6.668-4.829 18.781-9.449 38.179-9.449 12.288 0 26.159 4.305 35.27 10.182 9.111 5.865 11.276 11.997 11.276 11.997v95.639zM814.545 575.974h-593.455c-92.66 0-174.545-71.983-174.545-162.909v-174.545h930.909v174.545c0 92.66-70.249 162.909-162.909 162.909zM325.818 660.337c-12.288 0-25.251-4.282-33.815-10.543-8.576-6.272-12.73-13.44-12.73-22.551v-4.724h93.091v4.724c0 9.111-4.154 16.279-12.73 22.551-8.564 6.26-21.527 10.543-33.815 10.543zM804.003 820.337h-572.369l-56.727-202.543c15.069 3.142 30.441 4.724 46.185 4.724h11.636v4.724c0 23.692 13.3 43.857 30.906 56.727 17.617 12.881 39.564 20.003 62.185 20.003s44.567-7.121 62.185-20.003c17.606-12.87 30.906-33.036 30.906-56.727v-4.724h395.636c15.919 0 31.325-2.188 46.185-5.457l-56.727 203.276zM824.727 866.883c9.577-0.919 18.211-8.029 20.724-17.094l70.912-253.091c64.535-35.444 107.636-103.924 107.636-183.633v-197.818c0-12.183-11.089-23.273-23.273-23.273h-46.545v-95.639c0-22.458-14.929-38.842-32-49.815-17.071-10.985-38.47-17.455-61.091-17.455-27.148 0-49.583 6.156-66.176 18.176-16.605 12.020-26.915 30.371-26.915 49.094v95.639h-498.909v-95.639c0-22.458-14.941-38.842-32-49.815-17.059-10.985-38.47-17.455-61.091-17.455-27.148 0-49.583 6.156-66.188 18.176-16.593 12.020-26.903 30.371-26.903 49.094v95.639h-59.636c-12.183 0-23.273 11.078-23.273 23.273v197.818c0 82.164 50.327 150.912 119.994 185.449l70.191 251.276c2.769 9.821 12.823 17.199 23.273 17.094h609.094c0.721 0.035 1.455 0.035 2.176 0zM806.8 479.030c-33.536 0.186-46.324-21.318-46.545-46.545 2.735-33.268 22.551-47.802 46.545-46.545 27.532 0.524 45.37 19.712 46.545 46.545 0.815 29.859-20.736 46.208-46.545 46.545zM806.8 525.576c55.994-1.117 92.358-44.416 93.091-93.091-0.291-53.411-46.394-92.288-93.091-93.091-54.679-0.687-92.463 43.089-93.091 93.091-0.838 52.212 41.658 92.556 93.091 93.091zM248.242 479.030c-28.835-2.269-45.149-15.558-46.545-46.545 2.816-30.732 15.953-46.301 46.545-46.545 28.905 1.001 46.301 23.226 46.545 46.545-0.151 32.687-21.818 48.384-46.545 46.545zM248.242 525.576c54.458-0.058 92.358-44.416 93.091-93.091-0.721-52.655-38.761-93.37-93.091-93.091-55.145-0.163-92.986 42.356-93.091 93.091 0.372 52.259 43.729 92.439 93.091 93.091zM628.331 463.513c13.44 0.186 24.495-10.089 24.692-22.947s-10.554-23.412-23.994-23.599c-0.233 0-0.465 0-0.698 0h-231.273c-13.452-0.186-24.495 10.089-24.692 22.947-0.186 12.847 10.554 23.412 23.994 23.599h231.971zM676.975 401.452c14.813 0.186 26.996-10.089 27.206-22.947 0.198-12.858-11.625-23.412-26.449-23.599-0.244 0-0.5 0-0.756 0h-308.433c-14.813-0.186-26.996 10.089-27.206 22.947-0.209 12.847 11.636 23.412 26.449 23.599h309.19z" />
<glyph unicode="&#xe939;" glyph-name="cart-car" d="M972.8 306.688c-6.144-10.24-18.432-18.432-32.768-18.432h-30.72c-10.24 53.248-57.344 92.16-112.64 92.16s-102.4-38.912-112.64-92.16h-344.064c-10.24 53.248-57.344 92.16-112.64 92.16s-102.4-38.912-112.64-92.16h-28.672c-22.528 0-38.912 18.432-38.912 38.912v47.104c0 73.728 61.44 135.168 135.168 135.168 0 0 0 0 0 0h565.248c0 0 0 0 0 0h79.872c61.44 0 114.688-34.816 137.216-88.064 0 0 20.48-45.056 8.192-114.688zM212.992 577.024c10.24 24.576 26.624 47.104 49.152 65.536 12.288 12.288 28.672 22.528 43.008 30.72 4.096 2.048 14.336 6.144 30.72 12.288 14.336 6.144 28.672 8.192 45.056 12.288v-141.312h-176.128c2.048 6.144 4.096 12.288 8.192 20.48zM477.184 554.496h-51.2v145.408h36.864c59.392 0 114.688-22.528 157.696-65.536l79.872-79.872h-174.080zM794.624 196.096c-38.912 0-69.632 30.72-69.632 69.632s30.72 69.632 69.632 69.632c38.912 0 69.632-30.72 69.632-69.632s-30.72-69.632-69.632-69.632zM227.328 196.096c-38.912 0-69.632 30.72-69.632 69.632s30.72 69.632 69.632 69.632c38.912 0 69.632-30.72 69.632-69.632s-30.72-69.632-69.632-69.632zM86.016 241.152h28.672c10.24-53.248 57.344-92.16 112.64-92.16s102.4 38.912 112.64 92.16h342.016c10.24-53.248 57.344-92.16 112.64-92.16s102.4 38.912 112.64 92.16h30.72c47.104 0 86.016 38.912 86.016 86.016v30.72c0 108.544-88.064 196.608-196.608 196.608h-61.44l-112.64 112.64c-51.2 51.2-118.784 77.824-190.464 77.824h-38.912c-36.864 0-71.68-6.144-104.448-18.432-16.384-6.144-26.624-10.24-36.864-14.336-18.432-10.24-36.864-22.528-53.248-36.864-24.576-22.528-45.056-49.152-57.344-79.872-6.144-16.384-12.288-30.72-16.384-43.008-88.064-12.288-155.648-88.064-155.648-178.176v-47.104c0-47.104 38.912-86.016 86.016-86.016z" />
<glyph unicode="&#xe93a;" glyph-name="Chat-icon" d="M380.827 520.194c-21.71 0-39.378 17.671-39.378 39.386s17.668 39.386 39.378 39.386h288.772c21.71 0 39.378-17.671 39.378-39.386s-17.668-39.386-39.378-39.386h-288.772zM380.827 323.266c-21.71 0-39.378 17.671-39.378 39.386s17.668 39.386 39.378 39.386h288.772c21.71 0 39.378-17.671 39.378-39.386s-17.668-39.386-39.378-39.386h-288.772zM516.51 888.423c-234.128-2.547-422.526-195.116-419.992-429.29 0.039-76.382 21.080-151.372 60.852-216.726 6.051-9.965 7.377-22.030 3.636-33.097l-58.752-173.218 182.267 58.041c4.056 1.326 8.177 1.982 12.338 1.982 6.497 0 12.955-1.628 18.678-4.7 62.624-34.265 133.531-52.383 204.989-52.383l5.145 0.026c234.181 2.547 422.578 195.13 420.045 429.29-2.507 231.64-192.939 420.1-424.508 420.1l-4.699-0.026zM39.367-64c-4.318 0-8.584 0.709-12.68 2.101-20.542 6.984-31.581 29.408-24.585 49.967l77.968 229.933-2.73 5.041c-39.325 72.588-60.065 154.589-59.973 237.141 1.339 275.581 226.607 499.817 502.174 499.817h2.415c275.711 0 500.927-224.354 502.043-500.119-0.669-75.082-18.586-150.532-51.808-218.026-85.49-173.691-258.91-281.581-452.571-281.581h-0.026c-77.456 0-152.222 17.474-222.223 51.95l-4.738 2.324-241.308-76.684c-3.872-1.234-7.889-1.864-11.958-1.864z" />
<glyph unicode="&#xe93b;" glyph-name="Compare-car" d="M213.459 407.579c28.591 0 51.775-23.184 51.775-51.775s-23.184-51.775-51.775-51.775c-28.591 0-51.775 23.184-51.775 51.775s23.184 51.775 51.775 51.775zM333.674 692.489c-45.378 0-100.559-38.808-115.781-81.402l-0.334-1.105-18.087-73.049c-3.59-14.497 7.398-28.534 22.344-28.534h246.266c12.702 0 23.011 10.309 23.011 23.011v138.067c0 12.702-10.309 23.011-23.011 23.011h-134.409zM126.573 462.377c-42.157 0-80.539-38.383-80.539-80.539v-57.528c0-56.953 46.598-103.551 103.551-103.551h318.499c12.702 0 23.011 10.309 23.011 23.011v195.538c0 12.702-10.298 23-23.011 23.011l-341.51 0.058zM491.083 104.989v46.736c0 12.702-10.309 23.011-23.011 23.011h-214.948c-12.702 0-23.011-10.309-23.011-23.011v-46.736c0-12.702-10.298-23.011-23.011-23.011h-11.506c-12.702 0-23.011 10.309-23.011 23.011v46.736c0 12.702-10.298 23.011-23.011 23.011-82.265 0-149.573 67.308-149.573 149.573v61.003c0 67.872 56.78 123.087 126.562 123.087h8.445l36.783 117.001c22.505 63.258 92.137 113.112 158.375 113.112h137.906c12.702 0 23.011 10.309 23.011 23.011v54.203c0 12.714 10.298 23.011 23.011 23.011h7.306c12.714 0 23.011-10.298 23.011-23.011v-710.737c0-12.702-10.298-23.011-23.011-23.011h-7.306c-12.714 0-23.011 10.309-23.011 23.011zM805.949 635.218c-94.438 0-171.273-76.835-171.273-171.273s76.835-171.273 171.261-171.273c94.45 0 171.284 76.835 171.284 171.273s-76.835 171.273-171.273 171.273zM805.938 250.827c-117.507 0-213.096 95.6-213.096 213.119 0 117.507 95.589 213.107 213.096 213.107 117.518 0 213.119-95.6 213.119-213.107 0-117.518-95.6-213.119-213.119-213.119zM805.737 394.595c-5.592 0-10.85 2.175-14.808 6.121l-57.171 57.171c-4.004 4.004-6.179 9.251-6.179 14.842s2.175 10.85 6.121 14.796c3.958 3.946 9.204 6.121 14.785 6.121 5.592 0 10.838-2.175 14.796-6.121l42.433-42.41 91.078 91.067c3.958 3.958 9.216 6.132 14.796 6.132 5.592 0 10.838-2.175 14.785-6.132 8.157-8.146 8.169-21.423 0.012-29.592l-105.863-105.875c-3.946-3.946-9.193-6.121-14.785-6.121z" />
</font>
</defs>
</svg>
